<?xml version="1.0" standalone="no"?>
<!DOCTYPE svg PUBLIC "-//W3C//DTD SVG 20010904//EN"
 "http://www.w3.org/TR/2001/REC-SVG-20010904/DTD/svg10.dtd">
<svg version="1.0" xmlns="http://www.w3.org/2000/svg"
 width="1437.000000pt" height="1440.000000pt" viewBox="0 0 1437.000000 1440.000000"
 preserveAspectRatio="xMidYMid meet">
<metadata>
Created by potrace 1.16, written by Peter Selinger 2001-2019
</metadata>
<g transform="translate(0.000000,1440.000000) scale(0.100000,-0.100000)"
fill="#000000" stroke="none">
<path d="M0 10446 c0 -3154 3 -3955 13 -3959 9 -4 9 -6 0 -6 -7 -1 -13 -8 -13
-16 0 -18 12 -19 28 -3 9 9 12 9 12 0 0 -6 -9 -17 -20 -24 -21 -13 -27 -38
-10 -38 6 0 10 5 10 11 0 6 9 8 21 4 15 -5 22 -2 26 14 3 11 9 19 13 16 12 -7
40 5 40 17 0 6 -8 8 -19 5 -14 -3 -19 1 -18 19 0 30 16 31 46 3 14 -13 26 -18
30 -12 3 6 16 15 29 22 18 10 29 9 54 -3 38 -19 40 -19 36 -3 -1 6 6 22 16 34
18 20 21 20 31 6 13 -18 35 -10 35 13 0 19 16 18 24 -2 4 -11 13 -14 27 -11
12 3 22 0 26 -9 12 -31 25 -13 19 26 -6 41 0 50 22 28 9 -9 12 -6 12 15 0 17
5 27 15 27 8 0 15 5 15 10 0 6 7 10 15 10 8 0 15 9 15 20 0 27 49 40 62 16 15
-26 27 -19 30 20 l3 36 37 -36 c22 -22 47 -36 62 -36 17 0 27 -8 34 -27 8 -22
11 -24 11 -8 1 17 3 18 12 5 8 -11 12 -12 16 -2 2 6 10 12 17 12 6 0 23 14 38
30 17 20 22 30 12 30 -8 0 -14 -4 -14 -10 0 -5 -4 -10 -10 -10 -19 0 -10 32
10 37 11 3 20 12 20 19 0 8 5 14 10 14 6 0 10 7 10 15 0 8 5 15 11 15 7 0 8
-12 4 -32 -4 -22 -3 -28 3 -19 7 9 12 10 16 2 12 -19 30 -12 43 16 7 15 13 33
13 40 0 14 26 18 32 4 1 -4 13 -12 25 -15 17 -6 23 -3 23 8 0 9 -4 16 -9 16
-5 0 -13 9 -16 20 -3 11 -13 20 -21 20 -20 0 -17 18 5 25 28 9 51 -5 51 -31 0
-14 6 -24 14 -24 8 0 17 -8 19 -17 4 -16 5 -16 6 -2 1 19 34 35 39 20 2 -6 8
-11 13 -11 4 0 6 6 3 14 -3 8 4 21 16 29 20 14 20 16 5 25 -15 8 -16 15 -7 48
8 27 11 31 10 14 -1 -46 2 -50 32 -50 19 0 30 5 30 14 0 21 20 30 33 17 8 -8
6 -11 -6 -11 -21 0 -22 -13 -2 -30 13 -11 19 -9 35 10 11 13 20 27 20 32 0 5
5 6 10 3 6 -3 13 1 16 9 3 9 13 16 21 16 11 0 13 -7 8 -30 -7 -32 8 -42 19
-13 6 14 9 15 15 4 5 -7 14 -10 20 -6 8 4 9 11 2 18 -6 8 -5 18 3 30 16 20 48
23 40 3 -3 -7 2 -16 10 -19 20 -8 21 13 2 38 -11 16 -11 21 -1 32 8 7 21 10
29 7 19 -7 19 -10 7 -32 -8 -14 -4 -17 22 -17 28 0 33 4 37 29 4 26 9 30 43
31 21 1 40 -2 43 -7 9 -15 -12 -30 -39 -30 -21 -1 -24 -5 -23 -32 1 -24 -3
-31 -16 -30 -10 1 -18 -2 -18 -7 0 -5 9 -9 19 -9 11 0 23 -5 27 -12 5 -7 11
-3 17 13 5 14 11 19 14 11 7 -19 23 -3 23 24 0 25 15 33 22 12 2 -6 10 -8 17
-4 9 6 8 11 -6 21 -27 21 -3 43 31 27 18 -8 28 -8 43 3 17 13 16 14 -11 25
l-29 11 21 15 c21 15 47 11 37 -6 -3 -4 2 -13 10 -20 12 -10 15 -9 15 4 0 23
17 20 23 -4 3 -11 10 -20 17 -20 7 0 14 9 17 20 3 11 9 20 14 20 5 0 6 7 3 15
-4 8 -1 22 6 30 6 8 9 19 5 25 -3 5 -2 10 4 10 6 0 17 13 26 30 8 16 27 33 40
36 14 3 25 13 25 21 0 10 6 12 21 8 14 -5 25 -2 30 6 7 11 9 11 9 -3 0 -9 5
-18 12 -20 6 -2 11 -19 10 -37 -1 -37 14 -30 20 9 2 14 11 26 23 30 40 10 57
28 61 59 2 18 8 40 14 49 9 16 9 16 10 0 0 -21 1 -21 33 -9 21 8 26 6 37 -15
10 -17 22 -24 44 -24 17 0 41 -3 54 -6 13 -4 22 -2 22 5 0 6 -7 11 -15 11 -8
0 -15 7 -15 15 0 8 -6 15 -14 15 -8 0 -17 6 -20 13 -5 10 -7 10 -12 0 -10 -22
-44 -15 -44 7 0 12 -10 25 -22 30 -21 8 -20 9 7 8 17 -1 37 2 44 7 10 5 12 4
7 -3 -5 -8 0 -12 13 -12 11 0 25 8 31 18 9 14 10 11 6 -15 -4 -22 -1 -33 9
-37 8 -3 15 -12 15 -21 0 -13 8 -10 35 10 l35 27 11 -26 c13 -29 29 -35 29
-11 0 8 7 15 15 15 17 0 20 16 5 25 -20 12 1 24 26 15 33 -13 47 -13 39 0 -3
6 1 10 9 10 9 0 16 -6 16 -14 0 -16 34 -31 50 -21 5 3 10 13 10 21 0 8 10 14
23 14 13 0 33 9 46 21 12 12 25 18 29 14 3 -3 0 -10 -8 -15 -8 -5 -11 -12 -7
-17 5 -4 12 -1 16 6 5 7 15 11 22 9 8 -3 19 7 26 24 7 15 18 28 26 28 8 0 22
9 32 20 14 15 21 17 32 9 16 -14 18 2 2 18 -16 16 -4 44 16 37 8 -3 15 -13 15
-20 0 -8 12 -20 28 -27 15 -6 30 -16 34 -22 4 -5 10 5 14 22 4 18 10 30 15 28
4 -3 15 7 23 22 8 15 15 23 16 17 0 -15 142 -16 152 -1 6 9 11 8 21 -3 7 -9
28 -15 52 -15 38 0 40 2 37 28 -4 31 5 35 25 10 13 -17 14 -17 29 5 13 17 26
22 60 22 31 0 46 5 53 18 8 14 12 15 22 5 10 -10 10 -13 1 -13 -17 0 -15 -18
3 -37 20 -19 32 -9 15 12 -10 12 -10 15 4 15 9 0 20 -8 23 -17 15 -38 53 -58
53 -28 0 9 -9 15 -21 15 -30 0 -18 24 14 28 22 3 26 0 20 -13 -5 -14 -2 -16
15 -10 13 4 22 2 22 -4 0 -16 21 -13 42 6 17 15 18 15 19 -13 0 -16 3 -23 6
-16 2 6 13 12 23 12 47 0 24 50 -30 65 -19 5 -22 4 -10 -4 13 -10 13 -12 0
-21 -20 -13 -31 -12 -52 4 -20 15 -14 26 14 26 10 0 18 7 18 16 0 12 -7 15
-24 12 -26 -5 -36 7 -36 43 0 11 4 18 9 15 5 -3 7 -14 5 -24 -4 -15 2 -17 51
-16 39 0 59 -4 62 -13 9 -24 33 -14 34 15 1 15 3 20 6 10 2 -10 10 -15 19 -11
8 3 14 0 14 -6 0 -6 -4 -11 -10 -11 -5 0 -10 -5 -10 -11 0 -7 10 -9 27 -4 23
5 25 4 14 -9 -12 -14 -10 -16 8 -16 12 0 21 6 21 15 0 8 5 15 10 15 6 0 10 -7
10 -15 0 -18 19 -19 42 -1 16 12 16 14 -5 34 -13 12 -32 22 -43 23 -10 0 -13
3 -6 6 21 8 71 -21 83 -49 9 -23 14 -26 30 -17 13 6 19 6 19 -1 0 -19 37 -10
48 13 l11 22 0 -22 c1 -36 21 -27 22 10 0 29 1 30 9 10 6 -15 18 -23 33 -23
13 0 29 -6 35 -12 8 -8 15 -9 20 -3 20 28 82 46 82 23 0 -27 13 4 16 37 2 28
-1 35 -12 31 -8 -3 -21 -3 -29 0 -12 5 -13 10 -4 20 6 8 18 14 27 14 8 0 20 7
26 15 6 8 22 16 36 17 19 2 26 -2 28 -17 3 -22 -28 -65 -47 -65 -13 0 -15 -26
-2 -34 5 -3 11 3 14 14 5 21 27 28 27 9 0 -7 11 -8 29 -4 16 3 32 2 35 -3 6
-10 66 -4 66 7 -1 12 -27 41 -39 41 -14 0 -14 12 1 45 6 14 17 25 25 25 7 0
16 7 19 15 10 25 23 17 22 -15 -1 -17 7 -39 16 -49 13 -14 16 -28 11 -50 -5
-24 -3 -31 8 -31 9 0 18 8 20 18 3 12 5 10 6 -7 1 -16 5 -21 16 -18 17 7 30
-9 15 -18 -21 -13 -9 -24 25 -22 23 1 35 7 35 17 0 8 5 22 10 30 8 12 10 9 8
-10 -2 -19 2 -25 17 -25 11 0 22 -2 25 -5 19 -19 48 -28 59 -17 8 8 11 6 11
-10 0 -11 -7 -23 -15 -27 -8 -3 -16 -18 -16 -33 -2 -24 -2 -25 -6 -5 -2 12 -9
22 -14 22 -5 0 -7 -11 -5 -25 3 -16 -1 -28 -12 -34 -15 -9 -15 -10 3 -17 11
-4 23 -12 27 -18 4 -6 8 1 8 15 0 14 8 33 18 42 23 21 32 21 32 1 0 -10 5 -14
15 -10 10 3 18 -1 22 -12 4 -9 11 -20 16 -23 14 -10 -1 -29 -23 -29 -10 0 -21
-4 -25 -9 -10 -17 11 -20 38 -6 15 7 37 15 49 17 20 3 23 8 20 46 -3 33 0 42
12 42 11 0 16 -9 16 -30 0 -32 14 -40 24 -14 3 8 10 12 16 9 5 -3 10 1 10 9 0
8 -9 20 -20 26 -20 11 -28 40 -10 40 16 0 55 -45 55 -63 0 -25 19 -22 23 3 2
12 -4 31 -14 41 -20 23 -22 95 -4 129 6 11 8 25 4 31 -3 6 3 13 15 16 12 3 21
9 21 13 0 5 9 12 20 15 11 3 20 15 20 25 0 10 4 22 10 25 6 3 10 13 10 21 0
20 24 44 43 44 8 0 17 9 20 20 3 11 12 20 21 20 9 0 16 5 16 10 0 6 -7 10 -16
10 -8 0 -12 4 -9 10 4 6 13 5 25 -2 14 -9 22 -9 34 1 18 16 36 73 36 119 0 27
4 32 23 32 19 0 27 8 37 40 10 32 18 40 37 40 25 0 43 28 25 39 -7 4 -6 12 4
25 7 11 17 16 21 12 4 -4 1 -11 -7 -16 -8 -5 -11 -12 -8 -16 4 -3 14 1 24 10
12 12 13 20 5 30 -9 10 -7 17 5 27 15 12 16 11 10 -9 -7 -21 -5 -22 21 -16 15
4 34 12 42 18 12 9 13 8 8 -6 -4 -12 -2 -18 8 -18 9 0 15 14 17 43 2 29 8 42
18 42 8 0 19 6 23 13 11 17 27 15 27 -3 0 -24 13 -17 44 25 17 22 36 40 43 40
7 0 13 5 13 11 0 6 12 9 28 7 20 -2 26 -8 24 -22 -3 -17 -2 -17 24 3 15 11 36
21 46 21 14 0 18 5 15 15 -8 20 11 29 28 15 8 -7 22 -9 31 -6 13 5 14 9 4 21
-10 12 -9 15 6 15 14 0 15 3 6 12 -14 14 -17 52 -3 44 5 -3 14 1 21 9 17 21
30 19 30 -5 0 -27 37 -27 45 0 8 26 35 26 35 0 0 -11 4 -20 10 -20 6 0 6 9 0
26 -6 14 -10 34 -10 45 0 22 25 26 34 4 3 -8 10 -15 16 -15 19 0 59 54 60 80
0 14 4 32 10 40 6 9 5 17 -3 22 -8 5 -4 8 10 8 26 0 58 39 43 54 -6 6 0 14 18
23 15 7 35 18 45 25 15 11 24 9 58 -9 l40 -22 9 22 c11 27 35 57 44 57 4 0 6
-10 4 -22 -4 -28 18 -35 27 -7 5 15 9 18 15 9 6 -10 10 -8 18 7 7 12 23 20 48
21 40 3 67 18 58 33 -3 5 -14 9 -25 9 -10 0 -19 5 -19 11 0 6 -9 9 -20 6 -10
-3 -21 0 -23 7 -3 6 -9 0 -15 -14 -6 -14 -11 -19 -11 -12 -1 6 -7 12 -15 12
-8 0 -17 7 -20 16 -3 8 -2 12 4 9 6 -3 10 1 10 9 0 21 -32 86 -42 86 -4 0 -8
7 -8 15 0 26 -23 61 -82 126 -81 88 -157 236 -143 278 8 25 18 26 39 6 20 -21
29 -2 14 31 -10 22 -10 28 0 32 6 2 12 10 12 18 0 18 36 18 43 0 3 -8 33 -34
66 -57 34 -24 61 -48 61 -54 0 -22 80 -95 105 -95 14 0 25 -5 25 -11 0 -5 4
-8 9 -5 4 3 17 -1 27 -9 10 -8 26 -15 36 -15 9 0 47 -37 85 -81 76 -91 93
-116 93 -141 0 -10 5 -18 10 -18 13 0 13 -67 0 -75 -5 -3 -10 -14 -10 -24 0
-9 -13 -28 -30 -41 -29 -25 -39 -50 -20 -50 6 0 10 6 10 14 0 9 7 12 20 9 11
-3 17 -9 14 -14 -3 -5 1 -9 9 -9 8 0 18 -8 21 -17 6 -15 8 -15 17 -3 8 11 9 9
4 -8 -5 -18 3 -31 44 -69 28 -26 51 -52 51 -58 0 -6 13 -15 28 -21 22 -9 31
-21 42 -57 7 -28 18 -47 27 -47 8 0 27 -13 43 -28 16 -16 42 -35 59 -41 16 -7
37 -22 47 -32 24 -26 99 -59 137 -59 32 0 94 -33 115 -62 7 -10 18 -18 23 -18
5 0 38 -13 73 -29 34 -17 76 -33 92 -36 36 -8 77 -27 86 -39 4 -6 12 -5 21 3
10 8 32 10 64 6 26 -3 84 -7 128 -9 44 -2 87 -7 96 -11 11 -4 22 1 32 15 l15
22 7 -22 c5 -16 10 -18 20 -10 10 8 15 8 20 -1 6 -8 11 -6 18 6 7 14 11 15 17
4 7 -10 11 -10 25 1 14 12 18 12 26 -1 5 -8 9 -9 9 -2 0 6 31 17 70 24 39 7
70 16 70 21 0 4 7 8 15 8 8 0 15 -5 15 -11 0 -8 5 -8 15 1 8 7 15 19 15 26 0
12 33 20 63 15 4 -1 22 5 40 12 17 8 38 12 46 9 7 -2 16 1 20 7 5 7 17 8 37 2
38 -11 129 -5 166 10 22 9 31 9 43 -1 13 -11 20 -9 38 9 13 11 32 21 43 21 14
0 16 -3 6 -9 -8 -5 -1 -7 21 -6 19 1 39 5 46 9 6 4 15 5 20 1 5 -3 12 -1 16 5
4 6 11 8 16 5 13 -9 79 25 79 41 0 8 7 14 15 14 8 0 15 5 15 10 0 6 6 10 13 9
6 -1 25 3 40 9 16 7 32 12 36 12 10 0 46 42 54 63 3 9 19 25 34 34 20 12 27
24 25 38 -4 17 -3 18 13 5 16 -13 19 -12 34 10 25 39 62 70 82 70 11 0 19 5
19 10 0 6 6 10 13 10 33 0 137 70 137 92 0 5 11 19 25 32 26 24 32 50 14 61
-6 5 -4 12 8 20 13 10 20 10 25 2 5 -7 8 -3 8 11 0 23 19 32 21 10 0 -13 19
26 23 48 1 9 28 48 56 81 5 7 10 16 10 21 0 6 9 12 20 15 11 3 20 12 20 21 0
9 19 35 41 57 25 25 37 44 31 48 -6 4 -7 12 -3 20 7 11 11 10 18 -3 8 -15 11
-15 22 -2 10 12 8 16 -9 21 -27 8 -20 30 9 29 27 -1 27 4 -1 16 -18 7 -19 9
-5 9 20 1 23 27 5 34 -10 4 -9 6 1 6 11 1 11 4 1 16 -7 9 -8 15 -2 15 16 0 22
28 12 55 -6 16 -6 25 0 25 12 0 13 47 2 54 -17 11 -12 89 9 134 11 26 27 61
34 77 18 43 54 164 60 204 3 19 8 38 11 43 3 4 -2 8 -10 8 -8 0 -19 6 -23 14
-11 19 -61 9 -68 -13 -6 -19 -50 -41 -82 -41 -18 0 -23 -6 -23 -25 0 -16 -7
-28 -17 -31 -33 -10 -48 -21 -48 -35 0 -8 6 -13 14 -11 12 3 12 1 0 -14 -13
-16 -14 -16 -17 0 -2 10 -10 15 -18 12 -8 -3 -25 -1 -39 4 -18 7 -25 6 -25 -3
0 -6 -7 -3 -15 7 -15 20 -15 20 -15 0 0 -11 -10 -28 -22 -39 -16 -13 -19 -20
-9 -23 7 -2 17 2 22 9 6 10 9 11 9 2 0 -7 7 -13 15 -13 9 0 15 -9 15 -25 0
-23 -2 -24 -21 -13 -17 11 -22 10 -34 -6 -7 -10 -18 -15 -24 -11 -6 3 -11 0
-11 -8 0 -8 -7 -20 -16 -28 -13 -11 -14 -9 -8 17 6 28 6 28 -9 9 -11 -14 -12
-24 -5 -32 7 -9 4 -20 -10 -38 -14 -17 -22 -21 -25 -13 -5 15 -32 -13 -47 -49
-5 -12 -21 -25 -35 -29 -31 -8 -73 -47 -85 -79 -6 -15 -20 -25 -45 -29 -20 -4
-38 -13 -41 -21 -3 -7 -16 -16 -30 -19 -13 -4 -24 -11 -24 -16 0 -6 -15 -10
-34 -10 -26 0 -35 -5 -39 -21 -5 -17 -9 -19 -26 -10 -11 6 -29 11 -40 11 -12
0 -21 4 -21 10 0 5 -19 0 -43 -12 -23 -13 -53 -24 -66 -26 -38 -5 -81 -34 -81
-54 0 -10 -4 -18 -8 -18 -5 0 -14 -11 -20 -24 -7 -16 -25 -29 -50 -36 -26 -9
-42 -21 -51 -41 -9 -20 -20 -29 -37 -29 -13 0 -24 -3 -24 -8 0 -4 -11 -19 -25
-34 -14 -15 -28 -41 -31 -57 -4 -17 -14 -31 -25 -34 -11 -3 -19 -14 -19 -26 0
-26 -25 -38 -75 -35 -45 3 -65 -9 -58 -34 4 -18 -40 -43 -82 -47 -28 -2 -85
-28 -85 -38 0 -11 -69 -39 -80 -32 -6 4 -10 13 -10 21 0 22 -60 19 -61 -3 -3
-44 -4 -53 -10 -50 -3 1 -13 -4 -21 -10 -12 -10 -18 -10 -34 2 -24 18 -54 19
-55 3 0 -7 -4 -4 -8 7 -8 19 -8 19 -20 -2 -14 -28 -80 -47 -131 -38 -28 5 -48
1 -79 -15 -46 -24 -60 -40 -37 -40 9 0 16 -7 16 -16 0 -12 -6 -15 -22 -11 -14
4 -31 -2 -50 -19 -23 -18 -42 -24 -81 -25 -36 -1 -45 -3 -28 -8 l24 -6 -25
-12 c-13 -6 -37 -9 -52 -6 -26 5 -28 4 -21 -17 6 -19 4 -22 -9 -17 -8 3 -22
-1 -31 -9 -8 -9 -15 -11 -15 -6 0 15 -44 30 -65 22 -11 -4 -25 -4 -30 0 -6 5
-24 10 -40 13 -38 5 -68 17 -77 31 -5 7 -13 4 -23 -9 -15 -18 -16 -18 -11 -2
5 14 1 18 -17 17 -40 -4 -47 0 -47 23 0 17 -2 19 -10 7 -14 -23 -59 31 -53 64
4 18 1 26 -8 26 -8 0 -25 14 -39 31 -14 17 -31 37 -37 44 -7 8 -13 18 -13 23
0 5 -9 19 -20 32 -11 13 -20 31 -20 42 0 10 -5 18 -11 18 -5 0 -15 14 -21 30
-5 17 -19 35 -29 41 -11 5 -17 14 -14 18 2 5 -2 14 -10 21 -8 7 -17 27 -21 45
-3 19 -12 36 -20 39 -8 3 -14 12 -14 20 0 8 -6 21 -13 28 -7 7 -21 40 -31 73
-10 33 -29 71 -42 85 -12 14 -26 37 -29 53 -4 15 -19 40 -34 56 -14 16 -33 42
-42 58 -36 66 -45 78 -56 86 -7 4 -13 15 -13 22 0 8 -5 15 -11 15 -6 0 -9 7
-5 15 3 9 0 15 -10 15 -8 0 -13 4 -10 8 3 5 -10 21 -29 37 -19 15 -35 33 -35
40 0 6 -9 20 -20 30 -11 10 -20 23 -20 29 0 5 -13 24 -29 41 -57 60 -129 228
-177 415 -13 52 -31 112 -39 132 -8 21 -12 44 -9 53 3 8 2 15 -3 15 -5 0 -10
12 -11 28 -1 15 -9 50 -17 77 -20 72 -47 308 -45 399 0 15 -4 34 -10 41 -8 10
-8 25 -1 52 6 21 11 54 11 74 0 19 4 39 9 45 5 5 11 34 14 64 7 78 28 133 54
145 14 6 21 16 18 25 -7 24 43 66 95 81 25 7 51 19 58 28 9 11 15 12 24 3 14
-14 32 -16 23 -3 -3 5 -1 12 5 16 5 3 10 2 10 -4 0 -21 61 -7 92 21 17 15 39
28 47 28 19 1 61 34 61 49 0 6 8 12 18 12 9 1 24 3 32 4 8 1 21 3 28 4 6 0 12
8 12 16 0 9 9 15 25 15 14 0 25 -3 25 -7 0 -5 24 -8 54 -8 39 0 52 3 49 13 -3
7 3 12 17 12 12 0 29 7 37 16 13 13 17 13 24 2 7 -11 9 -11 9 1 0 7 6 11 14 8
7 -3 26 1 42 9 15 8 34 12 42 9 8 -3 25 6 39 19 13 13 39 31 57 40 63 30 59
94 -7 119 -9 3 -17 11 -17 18 0 6 -14 24 -30 39 -17 15 -30 26 -30 24 0 -2
-17 3 -38 9 -20 7 -46 12 -57 10 -11 -2 -35 -5 -54 -7 -18 -2 -37 -10 -41 -16
-4 -7 -12 -10 -17 -7 -5 3 -23 -2 -39 -12 -16 -10 -40 -20 -54 -24 -14 -4 -36
-17 -50 -30 -14 -13 -40 -24 -60 -25 -28 -2 -44 -12 -80 -52 -25 -28 -52 -50
-61 -50 -9 0 -19 -3 -23 -7 -7 -8 -107 -31 -136 -32 -8 -1 -28 10 -44 24 -25
21 -28 31 -27 75 0 32 7 57 16 67 9 9 13 23 10 34 -4 10 -2 19 3 19 9 0 43 77
41 93 -1 5 10 21 23 35 23 26 39 56 52 95 3 9 12 17 21 17 8 0 15 5 15 11 0 6
18 29 40 51 22 22 40 47 40 54 0 8 5 14 10 14 6 0 10 9 10 21 0 11 4 18 9 15
5 -3 20 4 35 15 14 11 30 17 36 14 6 -3 10 4 10 17 1 26 22 58 39 58 6 0 16
11 21 25 6 16 17 25 32 25 24 1 61 23 52 32 -3 3 11 9 31 12 21 4 47 19 62 37
23 25 63 43 49 21 -3 -5 9 -6 25 -4 21 3 34 -1 44 -14 14 -18 14 -18 15 4 0
15 6 22 20 23 32 2 38 4 45 11 4 4 16 3 27 -3 10 -5 24 -7 30 -3 7 5 3 11 -13
17 -42 16 -3 19 55 3 58 -15 96 -12 96 8 0 15 54 40 58 26 6 -16 22 -12 22 5
0 11 7 14 25 9 16 -4 25 -2 25 6 0 6 5 8 10 5 6 -3 10 -1 10 5 0 6 4 9 9 5 13
-8 64 42 56 55 -3 5 0 13 8 16 9 3 21 19 27 35 7 16 19 30 26 30 8 1 20 2 27
3 7 1 12 17 12 45 0 26 5 46 13 48 6 3 12 0 12 -6 0 -6 5 -11 11 -11 8 0 7 5
-1 16 -11 13 -10 19 7 36 12 12 26 17 33 13 9 -6 9 -10 -1 -16 -9 -6 -2 -9 23
-9 20 0 44 -3 54 -7 12 -4 15 -3 10 5 -5 9 10 10 57 7 50 -4 67 -2 77 10 7 8
21 15 32 15 11 0 27 7 36 16 10 11 17 13 20 5 2 -6 8 -11 13 -11 6 0 7 5 4 10
-3 6 1 10 9 10 8 0 18 -4 21 -10 3 -5 19 -10 36 -10 16 0 29 -4 29 -10 0 -5 6
-10 14 -10 8 0 17 -7 20 -16 3 -8 10 -12 16 -9 5 3 10 1 10 -4 0 -6 7 -11 15
-11 8 0 15 -4 15 -9 0 -7 27 -20 53 -25 4 0 17 -16 28 -35 16 -27 23 -31 30
-20 6 10 9 10 9 2 0 -7 11 -13 24 -13 16 0 26 -7 29 -21 4 -15 2 -19 -9 -15
-8 3 -13 2 -10 -2 8 -13 -29 -39 -65 -46 -24 -4 -28 -3 -14 3 17 7 14 9 -18
13 -37 4 -64 -11 -49 -27 4 -4 -4 -5 -17 -2 -23 6 -81 -16 -81 -31 0 -8 -49
-32 -65 -32 -7 0 -20 -9 -30 -20 -10 -11 -28 -20 -39 -21 -12 0 -33 -8 -47
-17 -45 -29 -84 -56 -89 -62 -3 -3 -21 -13 -41 -23 -19 -9 -43 -25 -54 -37
-10 -11 -22 -20 -26 -20 -4 0 -18 -10 -31 -23 -13 -12 -32 -29 -43 -37 -26
-19 -45 -53 -46 -82 -1 -22 -1 -22 -9 2 l-8 25 -1 -26 c-1 -15 -7 -31 -14 -37
-9 -8 -12 -34 -11 -83 2 -68 4 -73 38 -104 26 -24 36 -41 36 -63 0 -51 31
-108 52 -96 4 3 8 0 8 -5 0 -21 18 -10 24 14 4 14 10 23 15 21 5 -3 11 4 14
15 3 12 10 18 16 14 10 -5 15 7 12 28 0 4 6 7 14 7 10 0 12 -6 8 -17 -6 -16
-5 -16 10 -4 14 11 20 11 34 0 15 -12 16 -12 10 4 -5 14 -1 17 21 16 15 0 21
-3 15 -6 -18 -7 -16 -23 2 -23 8 0 19 -9 25 -19 13 -25 13 -41 0 -21 -7 11
-10 12 -10 2 0 -13 23 -42 34 -42 2 0 6 8 9 18 4 19 4 20 26 -49 6 -19 11 -42
11 -51 0 -25 40 -14 60 17 10 16 17 32 14 37 -3 4 2 11 11 14 14 6 14 8 -1 25
-9 11 -14 19 -9 19 4 0 2 6 -4 14 -8 10 -7 21 5 44 l15 32 37 -16 c83 -35 79
-35 132 -4 28 17 55 30 60 30 6 0 10 5 10 10 0 6 5 10 11 10 6 0 27 7 46 16
24 12 31 20 24 27 -6 6 -11 21 -11 33 0 13 -4 25 -10 29 -6 4 -6 15 0 30 6 16
6 34 0 50 -5 14 -6 25 -2 26 36 6 122 -17 122 -32 0 -5 11 -14 24 -20 14 -7
22 -17 19 -25 -3 -8 0 -14 7 -14 6 0 8 -4 5 -10 -4 -6 12 -10 42 -9 26 1 67
-1 91 -4 41 -5 42 -5 42 25 0 48 -30 105 -62 119 -15 6 -26 15 -23 19 6 10
-62 43 -74 35 -5 -3 -12 -1 -15 3 -3 5 -16 7 -30 5 -13 -3 -27 0 -30 6 -4 7 1
11 13 11 12 0 20 3 20 8 -4 25 3 31 31 26 27 -6 30 -4 30 19 0 20 -10 32 -42
51 -24 13 -59 27 -78 31 -19 4 -39 10 -45 13 -12 8 -18 9 -77 10 -34 2 -48 6
-48 16 0 8 6 17 13 20 6 3 1 3 -13 -1 -22 -5 -23 -4 -11 10 7 9 17 14 22 11 5
-3 9 4 9 15 0 12 6 20 12 19 7 -2 14 7 16 18 2 14 11 22 25 23 46 1 62 4 74
13 7 6 20 8 28 4 8 -3 15 -1 15 4 0 13 67 13 75 0 4 -7 13 -7 26 0 15 9 19 7
19 -5 0 -8 9 -15 20 -15 11 0 20 -7 20 -15 0 -8 5 -15 10 -15 6 0 21 -10 34
-22 12 -13 35 -30 51 -38 16 -8 44 -30 63 -47 19 -18 41 -33 48 -33 7 0 14 -7
16 -15 3 -13 94 -116 213 -239 61 -64 105 -114 105 -121 0 -7 30 -44 65 -79
16 -17 30 -33 30 -36 0 -3 39 -57 88 -121 48 -64 87 -120 87 -124 0 -4 9 -20
21 -37 12 -16 18 -32 15 -35 -3 -4 1 -14 9 -23 8 -9 25 -45 39 -81 13 -35 36
-86 50 -113 14 -27 24 -51 21 -54 -2 -3 5 -14 18 -26 12 -12 21 -29 19 -38 -2
-10 1 -18 7 -18 6 0 11 -6 11 -13 0 -7 13 -29 29 -48 20 -24 27 -39 20 -46 -6
-6 -5 -14 6 -23 8 -7 15 -21 15 -31 0 -10 4 -20 9 -23 5 -4 23 -35 40 -71 16
-36 35 -65 40 -65 6 0 11 -8 11 -17 0 -14 6 -11 24 12 13 16 23 40 21 53 -1
12 2 25 7 28 13 8 32 56 29 73 -1 7 2 10 7 7 15 -9 19 60 5 80 -7 10 -13 39
-13 64 0 32 -10 65 -33 111 -30 58 -33 70 -27 119 4 30 12 68 19 84 14 35 8
144 -10 178 -7 12 -38 52 -70 88 -63 71 -77 100 -84 166 -2 24 -11 54 -19 66
-20 32 -76 175 -80 207 -2 14 -7 51 -11 81 -12 93 -13 97 -34 146 -12 25 -21
53 -21 60 0 7 -9 29 -20 49 -11 19 -29 51 -40 70 -11 20 -20 43 -20 53 0 9 -9
28 -20 42 -11 14 -20 30 -20 36 0 6 -9 19 -20 29 -14 13 -20 31 -20 63 0 27
-6 52 -15 62 -9 10 -19 35 -22 56 -4 25 -20 55 -44 83 -21 24 -36 48 -33 53 4
5 -3 16 -14 24 -11 8 -24 29 -27 47 -4 17 -15 41 -25 52 -10 11 -27 40 -38 65
-12 27 -52 75 -101 123 -45 43 -81 84 -81 91 0 7 -12 19 -27 27 -28 14 -53 33
-79 58 -8 7 -45 15 -82 18 -37 3 -69 9 -70 14 -2 5 -16 16 -32 24 -15 8 -36
31 -47 52 -11 21 -30 43 -43 50 -27 13 -42 45 -34 68 5 11 2 13 -10 9 -12 -4
-16 0 -16 15 0 11 -13 30 -30 43 -29 21 -42 45 -17 33 6 -4 1 2 -13 13 -13 11
-27 19 -31 16 -4 -2 -13 4 -20 13 -11 13 -12 17 -1 21 11 3 10 7 -1 21 -8 9
-17 38 -21 64 -5 45 -4 48 22 58 15 6 42 11 59 12 18 1 33 7 33 13 0 7 11 15
25 18 35 9 31 32 -6 40 -17 3 -92 6 -165 6 -138 0 -139 0 -135 -41 2 -18 -76
-69 -112 -73 -13 -1 -27 -5 -32 -8 -6 -3 -20 2 -32 12 -28 22 -49 73 -34 78
14 5 14 32 1 32 -5 0 -10 -6 -10 -12 0 -9 -4 -8 -11 2 -8 11 -12 12 -16 3 -2
-7 -17 -13 -33 -13 -22 0 -29 -5 -32 -22 -3 -20 -8 -23 -43 -20 -22 2 -42 5
-44 7 -8 8 44 44 57 40 7 -3 10 0 7 5 -4 6 -104 10 -261 10 -241 0 -256 -1
-276 -20 -23 -21 -53 -26 -63 -10 -3 6 -13 10 -22 10 -12 0 -13 -3 -4 -14 17
-21 -2 -54 -37 -62 -15 -4 -37 -16 -48 -27 -31 -29 -53 -29 -81 1 -19 20 -26
23 -32 13 -7 -11 -10 -11 -14 0 -5 11 -9 10 -20 -3 -8 -10 -20 -18 -27 -18 -9
0 -8 -5 3 -18 14 -16 15 -21 3 -37 -10 -15 -21 -17 -54 -11 -23 3 -42 4 -42 0
0 -10 28 -34 39 -34 6 0 11 -4 11 -10 0 -5 -7 -10 -16 -10 -8 0 -13 -4 -9 -9
3 -5 1 -12 -5 -16 -14 -9 -50 4 -50 18 0 7 -10 17 -22 22 -13 6 -22 16 -20 23
1 7 -12 18 -29 24 -31 11 -31 12 -13 26 19 14 18 14 -1 9 -11 -4 -32 -9 -47
-13 -19 -4 -28 -13 -28 -26 0 -16 -5 -19 -22 -14 -13 3 -26 6 -30 6 -5 0 -8 6
-8 14 0 8 -7 17 -16 20 -22 8 -24 8 -19 -7 3 -6 -4 -18 -15 -25 -12 -7 -20 -8
-20 -2 0 5 -9 10 -19 10 -11 0 -23 5 -26 10 -3 6 -15 10 -26 10 -10 0 -19 4
-19 9 0 6 -8 10 -17 9 -10 0 -43 3 -73 7 -56 6 -134 -10 -124 -26 3 -5 -2 -9
-10 -9 -9 0 -16 -6 -16 -13 0 -17 -46 -57 -65 -57 -9 0 -18 -7 -21 -15 -4 -8
-12 -15 -20 -15 -8 0 -14 -7 -14 -15 0 -8 -4 -15 -9 -15 -4 0 -21 -20 -37 -45
-15 -25 -32 -45 -36 -45 -4 0 -8 -7 -8 -15 0 -8 -4 -15 -8 -15 -18 0 -49 -36
-55 -62 -4 -16 -10 -39 -13 -53 -6 -22 -3 -25 21 -25 18 0 28 6 32 20 4 16 14
20 44 20 22 0 39 -4 39 -10 0 -5 -5 -10 -11 -10 -5 0 -16 -15 -24 -34 -8 -19
-24 -37 -35 -41 -11 -3 -20 -11 -20 -16 0 -5 -9 -4 -20 3 -11 7 -20 18 -20 25
0 7 -7 10 -16 6 -8 -3 -13 -12 -10 -19 3 -9 0 -11 -11 -7 -16 6 -16 0 0 -102
1 -5 -3 -9 -10 -8 -7 2 -10 -3 -7 -10 2 -7 -6 -25 -18 -39 -13 -14 -31 -40
-40 -57 -33 -61 -78 -46 -78 26 0 26 -4 33 -20 33 -11 0 -20 7 -20 15 0 8 -9
23 -19 32 -11 9 -18 20 -15 25 3 4 0 8 -5 8 -6 0 -11 6 -11 13 0 7 -11 28 -24
47 -13 19 -27 46 -31 60 -4 14 -13 32 -21 40 -7 9 -15 31 -17 50 -5 40 -10 53
-66 172 -23 48 -41 94 -41 102 0 9 -3 16 -8 16 -4 0 -13 19 -20 42 -7 23 -21
53 -31 67 -10 14 -24 43 -30 64 l-13 37 -2749 0 -2749 0 0 -3954z m7359 3772
c46 4 48 3 61 -27 7 -17 16 -31 21 -31 5 0 9 -5 9 -11 0 -5 -4 -7 -10 -4 -6 4
-9 -3 -7 -17 1 -14 -4 -23 -15 -26 -11 -2 -18 3 -18 12 0 9 -4 16 -10 16 -5 0
-10 -7 -10 -16 0 -9 -8 -23 -17 -30 -20 -15 -37 -18 -29 -6 6 10 -15 37 -36
45 -10 3 -18 13 -18 22 0 8 -9 15 -20 15 -32 0 -24 30 10 37 18 3 30 12 31 22
0 9 3 11 5 5 3 -7 23 -9 53 -6z m-851 -102 c22 -8 42 -13 44 -11 2 2 9 -4 15
-13 9 -15 7 -18 -9 -19 -11 -1 -29 -11 -40 -23 -12 -12 -27 -19 -35 -15 -22 8
-53 -3 -49 -18 1 -7 1 -9 -1 -4 -3 4 -11 7 -18 7 -19 0 -85 -40 -85 -51 0 -5
-8 -9 -17 -9 -21 -1 -53 -23 -53 -37 0 -5 -18 -7 -42 -4 -24 3 -43 11 -43 16
0 17 59 91 85 108 14 9 44 29 67 46 37 26 58 33 124 39 9 1 35 -4 57 -12z"/>
<path d="M6965 11638 c-5 -12 -17 -17 -42 -16 -19 1 -38 -3 -41 -8 -4 -5 -32
-18 -62 -28 -30 -11 -71 -32 -91 -48 -20 -15 -40 -28 -44 -28 -10 0 -127 -120
-148 -153 -12 -18 -14 -27 -5 -27 9 0 9 -3 0 -12 -7 -7 -12 -20 -12 -30 0 -10
-4 -18 -8 -18 -11 0 -42 -94 -42 -126 0 -18 6 -24 21 -24 11 0 17 4 14 10 -3
5 1 20 10 34 9 13 18 38 20 55 12 90 37 137 69 125 25 -9 19 -35 -16 -71 -25
-26 -32 -42 -34 -80 -2 -26 -5 -85 -8 -129 l-5 -82 31 -6 c45 -9 44 -9 77 36
34 46 39 60 17 52 -8 -3 -15 3 -18 13 -6 22 6 120 15 129 4 4 24 -5 46 -19 67
-44 83 -44 141 2 29 23 56 41 62 41 5 0 18 10 27 22 14 16 16 30 10 61 -3 22
-13 43 -20 48 -11 7 -10 9 4 9 13 0 17 6 15 23 -3 21 1 22 52 21 30 0 79 -7
108 -16 52 -15 137 -14 147 2 4 7 -39 42 -55 46 -45 9 -96 40 -92 54 2 9 -11
11 -50 7 -103 -12 -164 -15 -138 -7 21 7 22 8 5 9 -17 1 -18 3 -5 12 12 8 9 9
-12 5 -16 -4 -28 -2 -28 3 0 10 42 23 62 18 7 -2 10 -2 6 0 -21 12 -3 19 47
19 38 -1 55 -5 55 -14 0 -7 6 -12 13 -11 6 1 20 -1 29 -5 28 -12 58 11 58 45
0 35 -4 37 -94 43 -41 3 -72 10 -77 17 -6 11 -9 10 -14 -3z"/>
<path d="M8200 11374 c0 -11 -6 -15 -19 -11 -25 6 -44 -38 -43 -98 0 -57 6
-64 46 -60 23 2 37 -2 40 -11 3 -8 15 -14 26 -14 11 0 20 -5 20 -11 0 -5 20
-19 45 -30 24 -11 47 -24 50 -29 3 -6 15 -10 25 -10 24 0 35 -17 20 -34 -14
-18 -3 -64 20 -76 21 -11 62 -2 73 17 4 7 13 13 18 13 27 0 64 69 54 100 -12
39 -47 90 -56 84 -5 -3 -12 1 -15 10 -3 8 -24 27 -47 42 -23 16 -52 38 -65 50
-28 27 -104 64 -131 64 -11 0 -23 5 -26 10 -10 16 -35 12 -35 -6z"/>
<path d="M7845 11167 c-35 -20 -69 -51 -94 -87 -29 -40 -54 -155 -40 -182 5
-9 9 -28 9 -42 0 -14 8 -34 18 -44 9 -9 16 -26 15 -37 -2 -12 2 -9 8 8 6 15
16 27 22 27 7 0 17 10 23 23 6 12 25 49 43 82 17 33 31 66 31 73 0 14 25 55
55 90 35 41 37 59 8 82 -28 22 -66 25 -98 7z"/>
<path d="M8654 10721 c-10 -11 -22 -17 -27 -14 -5 3 -12 1 -16 -5 -3 -6 -33
-13 -66 -17 -83 -9 -97 -14 -91 -32 5 -12 0 -13 -23 -8 -23 5 -35 1 -52 -16
-15 -15 -18 -24 -11 -27 17 -5 15 -22 -3 -22 -8 0 -15 -4 -15 -10 0 -5 -8 -10
-17 -10 -10 0 -27 -12 -38 -26 -20 -26 -21 -26 -59 -10 -48 20 -49 20 -41 -3
4 -14 -1 -23 -17 -32 -22 -12 -22 -12 -3 -20 20 -9 20 -9 0 -8 -39 2 -47 -1
-41 -16 4 -11 -3 -19 -22 -25 -15 -6 -34 -15 -42 -20 -8 -6 -26 -15 -38 -20
-13 -6 -26 -19 -29 -30 -3 -11 -11 -20 -18 -20 -7 0 -19 -10 -28 -22 -8 -13
-27 -36 -41 -53 -15 -16 -29 -42 -32 -56 -3 -15 -17 -38 -29 -52 -13 -13 -21
-28 -18 -31 4 -3 -5 -19 -20 -34 -44 -46 -55 -102 -20 -102 10 0 12 -6 8 -19
-6 -21 10 -38 20 -21 3 5 14 10 25 10 10 0 20 7 24 15 3 8 12 15 20 15 7 0 17
8 20 18 23 62 187 248 280 317 43 31 164 95 182 95 6 0 21 11 33 24 19 21 81
58 101 61 3 1 30 13 60 27 30 15 73 30 95 34 22 3 46 12 54 18 8 6 75 13 160
16 93 4 155 10 170 19 l23 13 -23 12 c-17 8 -23 19 -21 34 3 22 -12 30 -23 12
-10 -17 -22 -11 -28 12 -4 12 -9 19 -12 16 -4 -3 -19 -3 -35 2 -17 5 -32 4
-38 -2 -7 -7 -19 -4 -39 10 -22 15 -32 17 -45 8 -13 -8 -23 -8 -38 1 -14 9
-27 10 -46 3 -18 -7 -30 -7 -40 1 -10 8 -17 6 -30 -10z"/>
<path d="M13559 10376 c-31 -17 -63 -36 -70 -43 -8 -6 -43 -20 -79 -31 -36
-11 -57 -21 -47 -21 9 -1 17 -4 17 -7 0 -13 -43 -44 -89 -64 -25 -12 -54 -26
-65 -31 -30 -17 -115 -30 -221 -36 -55 -2 -104 -9 -109 -14 -6 -5 -16 -9 -22
-9 -7 0 -25 -5 -41 -12 -15 -6 -33 -12 -39 -13 -98 -21 -183 -59 -230 -102
-17 -15 -54 -48 -84 -73 -29 -25 -59 -59 -66 -77 -17 -40 -69 -79 -109 -81
-95 -6 -392 -78 -480 -117 -16 -7 -46 -19 -65 -26 -43 -15 -266 -127 -300
-149 -14 -10 -59 -35 -100 -57 -211 -113 -305 -172 -390 -249 -25 -23 -68 -62
-96 -86 -49 -43 -51 -46 -33 -61 10 -9 32 -23 49 -32 16 -8 30 -19 30 -23 0
-5 16 -16 35 -25 19 -9 35 -21 35 -26 0 -6 19 -19 43 -29 23 -10 48 -26 56
-35 7 -10 18 -17 22 -17 5 0 25 -14 44 -32 26 -23 32 -34 25 -44 -8 -9 -3 -21
19 -44 31 -34 31 -54 0 -71 -17 -9 -16 -12 14 -40 21 -20 28 -32 20 -36 -19
-7 -16 -24 7 -48 18 -19 19 -24 6 -34 -11 -9 -20 -10 -35 -2 -28 16 -49 15
-33 -1 19 -19 15 -25 -20 -33 -49 -11 -102 -9 -127 4 -12 7 -26 9 -31 6 -5 -3
-12 0 -16 6 -3 6 0 15 7 20 17 10 23 9 -81 16 -47 2 -91 9 -97 15 -10 8 -13 5
-13 -11 0 -27 -49 -73 -104 -97 -44 -20 -66 -37 -66 -52 0 -5 -12 -22 -27 -39
-16 -16 -32 -37 -38 -45 -15 -24 -51 -31 -68 -13 -21 20 -27 19 -27 -5 0 -11
7 -23 15 -26 30 -12 15 -27 -21 -21 -30 5 -34 4 -22 -6 9 -7 18 -24 22 -38 4
-20 -1 -32 -27 -55 -18 -17 -40 -33 -51 -37 -15 -6 -16 -10 -6 -22 11 -13 11
-20 0 -39 -9 -18 -9 -29 -1 -44 15 -29 14 -62 -3 -62 -20 0 -24 -18 -18 -73 3
-31 0 -57 -9 -73 -12 -23 -11 -28 6 -40 10 -8 25 -14 32 -14 10 0 10 -6 2 -27
-7 -19 -7 -29 0 -31 6 -2 -1 -15 -14 -30 -28 -30 -32 -63 -11 -84 10 -10 11
-25 6 -54 -4 -21 -8 -35 -9 -30 -3 22 -41 -45 -41 -72 0 -37 20 -54 57 -50 24
2 28 8 31 36 2 18 -1 39 -7 46 -14 16 -7 92 9 111 7 8 19 15 26 15 8 0 14 11
14 26 0 14 4 23 10 19 6 -3 10 -14 10 -24 0 -10 9 -26 19 -35 11 -10 23 -36
26 -59 7 -38 8 -39 21 -22 8 10 14 29 14 41 0 13 4 25 8 28 9 6 9 37 -2 88 -4
20 -5 46 -1 58 9 28 65 85 65 67 0 -8 6 -20 14 -26 23 -19 31 -83 12 -97 -18
-13 -12 -44 9 -44 27 0 47 37 40 78 -5 29 -2 42 9 52 9 7 16 25 16 41 0 21 4
27 15 23 8 -4 15 -2 15 4 0 5 -9 12 -20 15 -14 4 -20 14 -20 35 0 17 5 34 10
37 6 4 8 10 6 14 -3 4 8 15 24 24 l28 17 10 -52 c7 -46 6 -55 -10 -67 -21 -16
-23 -40 -5 -65 13 -18 16 -18 58 7 24 14 65 29 91 32 26 4 52 13 58 20 17 21
-15 26 -61 10 -62 -22 -69 -20 -69 20 0 29 4 36 27 41 14 4 33 2 43 -3 11 -8
25 -7 46 2 36 15 116 26 109 15 -3 -5 1 -11 7 -14 10 -5 10 -7 1 -12 -28 -13
-13 -42 32 -64 29 -14 45 -28 45 -40 0 -14 10 -20 43 -25 53 -8 87 -24 87 -42
0 -7 11 -18 24 -22 13 -5 26 -17 30 -26 9 -26 7 -70 -4 -81 -8 -8 -8 -30 -1
-73 10 -63 4 -102 -19 -116 -17 -11 -37 15 -44 57 -5 29 -3 39 11 47 10 6 12
11 6 11 -7 0 -13 7 -13 16 0 9 -5 12 -11 8 -9 -5 -10 1 -5 22 4 16 4 26 0 22
-4 -5 -22 4 -41 18 -18 14 -33 20 -33 13 0 -6 -6 -17 -14 -23 -13 -9 -12 -16
2 -48 9 -21 22 -38 29 -38 16 0 25 -16 33 -62 6 -33 4 -40 -14 -50 -20 -11
-20 -11 -1 -19 11 -4 15 -8 8 -8 -17 -1 2 -62 26 -81 15 -12 18 -28 18 -94 -1
-70 2 -81 22 -97 17 -14 22 -27 19 -56 -3 -33 -6 -38 -36 -44 -26 -5 -37 -2
-53 14 -20 22 -34 80 -32 130 1 15 -3 25 -8 22 -5 -4 -9 -1 -9 6 0 7 -7 20
-15 29 -10 11 -18 45 -21 95 -3 57 -10 84 -26 106 -21 28 -22 28 -50 12 -17
-11 -24 -21 -19 -26 5 -5 7 -15 5 -21 -9 -23 13 -62 36 -63 13 -1 28 -7 34
-13 8 -8 7 -11 -4 -8 -16 3 -16 1 -6 -49 4 -18 3 -34 -3 -38 -20 -11 -11 -50
17 -81 43 -48 63 -84 57 -103 -6 -21 27 -67 56 -76 12 -4 18 -13 15 -20 -3 -8
0 -15 5 -17 13 -4 19 -58 7 -58 -5 0 -6 -4 -3 -10 3 -5 1 -10 -5 -10 -6 0 -13
7 -16 15 -4 8 -13 15 -21 15 -8 0 -31 16 -50 35 -34 34 -59 42 -34 11 7 -8 10
-23 7 -34 -4 -13 3 -27 24 -45 16 -15 30 -24 30 -20 0 14 27 -32 38 -64 7 -20
7 -35 1 -38 -5 -4 -9 -26 -9 -51 0 -33 5 -47 20 -56 26 -16 26 -53 0 -80 -16
-17 -23 -19 -32 -10 -7 7 -19 12 -27 11 -11 0 -12 -2 -3 -6 6 -2 9 -9 6 -14
-9 -15 16 -69 31 -69 18 0 45 -72 45 -120 0 -64 20 -139 45 -166 33 -35 41
-75 19 -91 -15 -11 -21 -10 -41 9 -13 12 -23 29 -23 39 0 22 -24 41 -43 33
-14 -5 -13 -12 8 -54 13 -26 31 -50 40 -54 9 -3 23 -22 31 -41 12 -29 19 -35
42 -33 38 3 47 -5 50 -45 2 -30 -1 -35 -23 -39 -14 -3 -25 -1 -25 3 0 5 6 9
13 9 17 1 -34 29 -53 29 -9 1 -11 -2 -5 -7 6 -4 11 -19 12 -35 0 -15 7 -35 14
-44 8 -9 19 -36 25 -60 9 -36 9 -43 -2 -39 -7 3 -16 1 -19 -4 -11 -18 -25 -11
-45 23 -21 33 -28 31 -10 -4 9 -16 7 -19 -9 -19 -26 0 -31 -19 -15 -59 18 -42
40 -60 79 -61 21 -1 25 -3 13 -8 -14 -6 -15 -12 -4 -43 7 -19 10 -52 8 -72 -3
-24 0 -37 7 -37 7 0 9 -4 6 -10 -3 -5 -1 -10 4 -10 6 0 11 -6 11 -14 0 -8 7
-16 15 -20 18 -7 58 -94 49 -107 -11 -19 17 -108 36 -114 11 -3 25 -26 34 -52
18 -53 21 -87 6 -78 -5 3 -10 1 -10 -4 0 -6 5 -11 11 -11 6 0 9 -6 6 -12 -5
-16 21 -70 39 -81 18 -10 34 -71 34 -129 0 -29 5 -48 11 -48 6 0 9 -9 6 -20
-3 -13 1 -24 14 -30 31 -17 58 -90 52 -137 -3 -25 -1 -43 6 -47 6 -4 11 -14
11 -23 0 -8 11 -29 26 -45 14 -17 23 -37 20 -44 -3 -8 0 -13 6 -11 6 1 13 -4
16 -12 3 -9 0 -11 -8 -6 -9 5 -10 2 -6 -13 4 -11 2 -23 -3 -26 -5 -3 -8 -32
-6 -63 3 -47 8 -59 26 -69 20 -10 23 -18 20 -65 -2 -38 -9 -61 -23 -76 -12
-13 -19 -26 -15 -29 10 -10 -12 -44 -28 -44 -18 0 -20 20 -2 20 7 1 4 6 -7 15
-10 7 -15 18 -11 24 3 7 -2 11 -14 11 -37 0 -65 98 -36 130 23 25 10 120 -14
106 -10 -7 -25 27 -38 81 -9 37 -7 45 9 60 10 9 15 19 10 22 -10 7 -26 41 -27
58 0 6 -13 25 -28 43 -15 17 -25 35 -22 41 4 5 3 15 -2 22 -6 7 -11 34 -12 62
-3 53 -31 105 -58 105 -9 0 -14 3 -11 6 3 3 -2 27 -12 54 -11 31 -14 52 -8 58
6 6 6 17 -1 30 -6 10 -8 22 -4 25 3 3 -2 13 -11 22 -9 9 -14 20 -11 25 3 5 -4
11 -15 15 -11 3 -20 13 -20 20 0 8 -9 13 -20 12 -11 -1 -20 -5 -20 -10 0 -5 7
-7 15 -3 8 3 15 1 15 -4 0 -6 -6 -10 -14 -10 -40 0 -16 -116 29 -140 13 -7 22
-17 19 -21 -3 -5 3 -23 12 -41 12 -24 14 -36 6 -49 -13 -20 3 -89 20 -89 5 0
8 -7 4 -15 -3 -8 -2 -14 2 -14 21 3 31 -4 41 -30 16 -38 17 -91 1 -101 -20
-12 4 -96 36 -125 21 -19 27 -101 9 -129 -12 -18 -14 -30 -6 -44 5 -10 8 -28
5 -38 -4 -15 2 -23 19 -31 21 -10 26 -20 28 -64 3 -30 -1 -59 -8 -69 -17 -24
5 -118 29 -126 25 -8 56 -118 37 -130 -25 -15 15 -104 46 -104 22 0 63 -74 62
-112 -1 -46 27 -104 55 -112 13 -3 36 -24 52 -46 17 -22 33 -40 37 -40 4 0 20
-4 34 -10 25 -9 25 -11 11 -32 -18 -26 -21 -100 -5 -129 7 -14 7 -29 1 -49
-11 -31 2 -101 25 -135 16 -24 17 -52 1 -58 -10 -4 -10 -6 -1 -6 20 -1 3 -31
-18 -31 -12 0 -19 7 -19 20 0 11 -3 20 -8 20 -4 0 -15 17 -24 38 -15 35 -22
40 -72 52 -31 7 -58 11 -61 8 -10 -10 14 -57 35 -68 35 -19 62 -104 46 -142
-5 -10 2 -30 19 -56 22 -33 34 -41 80 -52 58 -14 63 -18 43 -38 -7 -7 -8 -12
-4 -12 5 0 -1 -8 -12 -17 l-21 -18 33 -38 c23 -25 44 -39 62 -40 23 -2 31 -8
37 -32 17 -62 19 -85 8 -85 -6 0 -11 -7 -11 -15 0 -8 4 -15 8 -15 5 0 16 -16
25 -35 18 -39 14 -80 -9 -89 -8 -3 -14 -14 -14 -25 0 -17 -25 -32 -59 -35 -26
-2 -23 -26 3 -36 20 -7 26 -16 26 -39 0 -37 -11 -41 -123 -44 -72 -2 -88 1
-107 18 -20 18 -95 30 -84 13 3 -4 13 -8 22 -8 12 0 13 -3 4 -12 -9 -9 -17 -7
-36 11 -14 13 -29 20 -35 17 -6 -4 -19 2 -31 14 -11 11 -27 20 -35 20 -21 0
-19 29 3 49 19 18 22 38 7 49 -12 8 -13 32 -2 50 5 6 4 12 -1 12 -5 0 -14 -10
-20 -23 -8 -17 -11 -18 -11 -5 -1 9 -9 23 -20 30 -10 7 -26 35 -35 63 -16 45
-16 50 -2 61 9 6 16 17 16 24 0 7 6 10 14 7 26 -10 26 6 1 29 -33 31 -59 44
-84 44 -16 0 -21 6 -21 25 0 14 -4 25 -10 25 -5 0 -10 14 -10 30 0 17 5 30 10
30 29 0 -1 75 -46 115 -28 26 -43 85 -20 85 9 0 16 7 16 15 0 30 -32 94 -55
109 -31 20 -59 79 -50 106 7 23 -25 86 -55 107 -26 18 -54 96 -46 128 5 18 2
27 -8 31 -9 3 -18 16 -22 27 -3 12 -16 33 -29 47 -28 32 -58 107 -45 115 6 3
10 13 10 22 0 9 -3 13 -6 10 -4 -4 -15 8 -24 26 -10 17 -21 31 -26 31 -16 -3
-61 35 -67 56 -3 13 2 25 15 34 13 10 17 19 12 28 -5 7 -9 24 -9 38 0 21 -6
26 -41 34 -36 7 -45 15 -64 54 -22 44 -22 45 -4 58 10 7 24 17 29 22 6 5 17
12 25 16 8 3 4 4 -9 2 -17 -4 -31 2 -47 19 l-23 25 25 0 c39 0 19 17 -22 18
-47 2 -61 14 -69 63 -5 30 -3 45 9 58 20 22 20 22 -1 71 -11 25 -24 40 -35 40
-11 0 -27 19 -44 52 -22 44 -24 53 -12 62 19 15 29 44 18 51 -6 4 -10 15 -10
26 0 10 -5 19 -11 19 -5 0 -8 4 -5 9 3 5 -8 11 -24 15 -22 4 -30 11 -30 26 0
14 -4 19 -12 14 -7 -5 -9 -2 -5 8 3 9 1 20 -5 26 -8 8 -7 19 1 40 7 16 10 42
7 58 -2 16 -5 32 -5 37 -1 4 -9 7 -19 7 -27 0 -63 42 -52 60 11 18 106 40 142
33 29 -6 46 -46 29 -67 -7 -8 -7 -24 -1 -48 9 -30 16 -37 43 -42 28 -5 34 -12
46 -52 10 -34 11 -48 2 -57 -24 -24 -2 -109 33 -125 14 -6 30 -27 37 -46 7
-20 16 -36 21 -36 4 0 5 -7 2 -15 -4 -8 -12 -15 -19 -15 -7 0 -15 -6 -18 -13
-7 -18 3 -67 14 -67 5 0 9 -5 9 -11 0 -5 -5 -7 -11 -3 -8 5 -9 2 -2 -11 12
-21 62 -30 64 -12 7 70 -9 172 -31 202 -4 6 -11 42 -14 80 -4 39 -13 84 -21
100 -8 17 -19 41 -25 55 -5 14 -19 39 -30 55 -10 17 -24 47 -30 68 -6 21 -33
65 -59 98 -26 32 -53 76 -59 97 -14 46 -79 122 -104 122 -15 0 -18 -5 -12 -22
3 -13 11 -24 15 -26 5 -2 9 -12 9 -23 0 -10 6 -19 13 -19 20 0 56 -37 63 -66
10 -38 -18 -53 -97 -54 -64 0 -67 1 -73 26 -4 14 -4 35 0 46 11 37 -5 86 -33
100 -35 17 -49 72 -27 106 12 18 13 30 5 54 -6 17 -8 34 -5 39 3 5 -4 9 -16 9
-35 0 -50 24 -50 80 0 67 -48 162 -78 152 -7 -2 -10 2 -6 12 3 9 2 16 -4 16
-5 0 -8 12 -6 28 5 35 -34 120 -58 128 -10 3 -18 11 -18 17 0 7 -9 23 -20 37
-11 14 -20 37 -20 51 0 33 -37 76 -73 84 -15 4 -30 11 -33 16 -3 5 -10 9 -16
9 -7 0 -6 -6 2 -15 10 -12 10 -15 -4 -15 -8 0 -18 -11 -22 -25 -14 -56 21
-108 81 -119 42 -8 63 -46 58 -102 -3 -34 1 -45 28 -72 18 -18 37 -31 43 -29
28 10 50 -75 25 -100 -6 -6 -8 -25 -4 -46 5 -26 15 -39 41 -53 19 -10 34 -26
34 -36 0 -9 7 -18 15 -20 21 -4 -52 -53 -76 -51 -10 1 -19 -2 -19 -8 0 -5 5
-9 11 -9 5 0 7 -4 4 -10 -3 -5 0 -7 8 -4 10 3 18 -5 25 -25 8 -21 18 -31 32
-31 13 0 24 -9 30 -26 16 -40 12 -53 -16 -60 l-25 -6 20 -22 c12 -12 21 -30
21 -39 0 -10 8 -17 19 -17 10 0 30 -15 45 -34 l25 -34 -24 -6 c-14 -4 -25 -11
-25 -17 0 -18 52 -59 75 -59 18 0 24 -7 30 -36 3 -21 2 -40 -3 -43 -14 -9 1
-93 18 -102 8 -4 22 -10 31 -13 22 -6 36 -100 19 -121 -17 -21 8 -94 37 -108
38 -17 74 -117 43 -117 -13 0 -13 -24 2 -73 9 -29 19 -42 40 -49 21 -7 30 -20
39 -50 9 -36 8 -43 -12 -64 -12 -13 -18 -24 -12 -24 6 0 20 -16 32 -35 12 -21
28 -35 40 -35 14 0 23 -13 35 -47 10 -30 13 -49 6 -51 -24 -8 -6 -45 50 -103
61 -63 68 -77 49 -96 -17 -17 22 -76 58 -87 18 -6 34 -17 37 -25 15 -40 32
-56 56 -53 19 2 14 -2 -17 -18 -24 -12 -43 -27 -43 -34 1 -30 41 -97 65 -106
18 -7 25 -17 25 -35 0 -14 4 -25 9 -25 17 0 21 -43 5 -55 -13 -9 -12 -17 10
-62 15 -29 34 -53 46 -56 12 -3 29 -24 41 -53 l21 -47 -23 -19 c-16 -12 -20
-20 -13 -25 6 -5 15 -23 19 -40 4 -23 12 -33 25 -33 22 0 60 -50 60 -78 0 -11
-8 -23 -17 -26 -10 -4 -13 -10 -8 -14 6 -4 11 -20 12 -36 3 -37 29 -66 61 -66
16 0 22 -4 19 -14 -3 -7 -2 -17 2 -22 5 -5 11 -21 15 -36 4 -20 1 -30 -14 -41
-17 -12 -18 -16 -6 -33 8 -11 16 -31 18 -44 1 -14 10 -26 18 -27 8 -1 32 -5
53 -8 38 -6 38 -7 22 -25 -12 -13 -15 -28 -11 -44 3 -14 1 -34 -5 -44 -9 -15
-9 -29 1 -64 11 -37 19 -47 44 -54 36 -11 46 -42 20 -61 -28 -21 -147 -17
-175 6 l-23 18 22 12 c21 11 21 13 7 41 -8 16 -28 39 -44 51 -25 19 -39 41
-45 72 0 4 -7 11 -14 16 -20 12 -19 16 2 40 13 14 16 24 9 33 -6 7 -13 25 -17
40 -3 15 -19 35 -36 45 -17 9 -30 23 -30 30 0 7 -4 13 -9 13 -18 0 -18 49 0
66 16 14 16 18 4 31 -15 15 -18 26 -16 55 1 10 -11 21 -33 29 -19 7 -33 17
-30 21 3 5 3 21 0 34 -5 19 -11 24 -24 19 -12 -4 -9 1 6 16 18 16 22 28 17 48
-4 14 -7 36 -7 49 0 16 -6 22 -22 23 -11 0 -34 16 -50 35 -28 34 -28 34 -10
62 15 22 22 54 14 65 -1 1 -3 10 -5 20 -4 20 -33 46 -50 47 -6 0 -19 25 -29
55 -14 41 -16 58 -8 68 9 10 8 18 -2 32 -8 11 -12 25 -9 32 3 8 -3 13 -13 14
-11 0 -14 3 -6 6 20 8 14 23 -9 20 -31 -3 -83 84 -74 125 4 17 2 35 -5 43 -6
8 -9 19 -6 24 10 15 -40 43 -70 39 -18 -2 -29 2 -32 12 -3 8 -1 12 3 8 12 -11
35 11 28 28 -3 7 -10 11 -16 7 -7 -4 -8 0 -4 11 6 14 3 17 -9 12 -8 -3 -28 -6
-42 -6 -15 0 -22 -4 -17 -8 6 -4 18 -21 27 -39 14 -27 14 -34 2 -44 -33 -27
-3 -122 42 -133 26 -7 36 -37 39 -124 2 -51 7 -66 25 -82 13 -11 28 -20 35
-20 6 0 22 -23 34 -51 22 -47 22 -51 6 -69 -9 -10 -12 -21 -7 -24 5 -3 13 -21
16 -40 7 -36 21 -46 64 -46 20 0 23 -3 14 -12 -16 -16 -15 -31 1 -25 21 8 18
-49 -3 -68 -14 -13 -17 -22 -10 -30 5 -6 11 -28 12 -48 3 -33 6 -37 30 -37 31
0 44 -19 49 -67 3 -23 -2 -37 -16 -47 -12 -10 -16 -19 -10 -23 6 -5 11 -17 13
-27 6 -34 34 -66 57 -66 19 0 24 -7 30 -41 5 -27 3 -50 -5 -65 -11 -19 -10
-31 4 -69 10 -25 24 -45 31 -45 34 0 79 -100 56 -123 -6 -6 -11 -25 -11 -42 0
-25 6 -33 31 -42 24 -10 29 -15 21 -25 -12 -15 16 -54 58 -80 28 -17 57 -88
37 -88 -16 0 -58 -78 -46 -86 19 -12 8 -24 -18 -19 -16 3 -22 2 -15 -1 6 -3
10 -10 6 -15 -8 -14 -21 -11 -21 5 0 24 -47 75 -70 75 -17 1 -25 11 -37 55
-20 68 -21 62 15 75 26 9 29 13 19 31 -6 11 -9 24 -6 29 7 10 -41 21 -93 21
l-36 0 26 14 c15 7 39 18 55 24 l29 10 -27 1 c-15 1 -30 6 -33 11 -3 6 -15 10
-25 10 -10 0 -25 9 -33 20 -16 23 -22 106 -7 115 26 16 -1 61 -56 94 -31 19
-57 89 -42 115 10 18 1 76 -12 76 -4 0 -7 8 -6 17 0 10 -4 17 -10 16 -27 -5
-73 99 -54 122 5 6 5 17 0 25 -4 7 -4 24 1 37 7 19 4 26 -19 40 -72 45 -85 72
-58 125 12 23 12 27 -1 32 -8 3 -13 15 -11 25 2 13 -8 29 -27 43 -19 15 -31
34 -33 53 -2 17 -8 34 -13 39 -13 14 -11 22 8 42 16 15 16 17 -2 30 -10 8 -13
14 -7 14 10 0 10 5 2 20 -6 11 -8 26 -4 32 5 7 0 9 -14 6 -11 -3 -30 1 -41 8
-26 19 -47 92 -32 115 8 13 6 19 -6 23 -9 4 -13 14 -10 26 3 11 1 20 -5 20 -6
0 -8 7 -4 15 3 10 -1 15 -13 15 -24 0 -61 41 -61 68 0 11 -5 24 -10 27 -6 3
-7 17 -4 30 8 31 -14 96 -37 113 -10 7 -26 28 -35 47 -9 19 -23 35 -31 35 -12
0 -13 -3 -5 -13 7 -9 8 -23 3 -43 l-9 -29 -1 26 c-1 15 -8 33 -18 40 -15 13
-15 12 -5 -8 16 -29 15 -59 -2 -86 -14 -22 -11 -77 4 -77 4 0 10 -9 13 -20 3
-12 14 -20 26 -20 15 0 23 -10 30 -38 14 -50 14 -65 -4 -98 -19 -38 -20 -78
-1 -71 8 3 17 -1 20 -9 3 -8 12 -14 20 -14 21 0 65 -46 72 -75 3 -14 1 -32 -6
-39 -25 -31 22 -126 62 -126 10 0 17 -3 16 -7 -2 -5 7 -24 20 -44 21 -35 21
-69 0 -69 -10 0 -5 -50 9 -73 4 -9 23 -26 42 -39 27 -18 35 -31 38 -61 3 -27
-1 -39 -12 -43 -8 -3 -15 -12 -15 -18 0 -27 40 -93 63 -103 30 -14 44 -85 22
-115 -18 -27 4 -99 35 -115 23 -11 62 -90 53 -106 -2 -4 -8 -21 -13 -38 -6
-21 -5 -27 2 -23 7 5 9 2 6 -7 -8 -20 13 -46 44 -58 29 -11 39 -37 27 -69 -7
-19 -16 -22 -63 -22 -54 0 -55 1 -66 36 -11 33 -10 37 17 60 l28 24 -29 0
c-21 0 -27 4 -22 15 3 9 0 15 -10 15 -9 0 -12 5 -8 12 5 8 0 9 -14 6 -17 -5
-27 2 -44 25 -12 18 -26 34 -30 35 -12 5 -10 56 3 69 14 14 -24 103 -44 103
-7 0 -21 22 -31 49 -16 44 -16 52 -2 78 9 19 11 34 5 44 -4 8 -6 22 -3 32 4
13 -2 19 -26 24 -26 5 -36 14 -52 52 -15 35 -17 50 -9 63 15 24 14 34 -5 53
-12 12 -14 19 -5 28 8 8 1 16 -26 31 -28 16 -39 31 -49 65 -7 25 -10 49 -7 54
3 4 2 33 -2 62 -6 48 -9 54 -33 60 -22 5 -30 16 -44 58 -14 45 -14 54 -2 68 8
8 14 25 14 36 0 12 6 24 13 26 7 4 3 8 -10 12 -13 4 -23 11 -23 16 0 5 -10 9
-22 9 -30 1 -49 16 -75 62 -19 33 -20 41 -9 63 20 38 8 71 -34 100 -44 31 -76
95 -61 124 14 26 -8 90 -46 130 -18 19 -30 38 -28 42 3 4 -2 10 -11 13 -13 5
-12 9 5 28 19 20 20 23 5 46 -8 13 -13 30 -10 37 7 18 -13 33 -49 35 -53 4
-62 1 -79 -25 -15 -23 -15 -30 -2 -68 8 -26 21 -43 32 -46 31 -5 42 -20 49
-62 4 -26 3 -45 -5 -54 -13 -16 -6 -81 12 -102 6 -7 24 -13 40 -13 16 0 27 -4
23 -10 -3 -5 -1 -28 5 -50 10 -37 9 -43 -12 -60 -21 -19 -22 -21 -5 -30 21
-13 23 -34 2 -26 -8 3 -15 1 -15 -4 0 -6 6 -10 14 -10 8 0 18 -9 21 -20 3 -11
17 -23 31 -26 13 -3 24 -12 24 -19 0 -7 5 -15 10 -17 6 -2 13 -20 16 -40 6
-34 4 -37 -30 -53 -42 -20 -48 -40 -10 -32 29 5 64 -21 44 -33 -14 -9 3 -23
33 -27 32 -5 57 -23 57 -40 0 -9 8 -25 17 -35 15 -17 15 -20 -5 -39 -27 -24
-27 -29 -2 -85 17 -35 25 -44 46 -44 19 0 25 -4 20 -15 -3 -8 -1 -15 4 -15 16
0 31 -72 18 -88 -7 -7 -11 -29 -10 -47 2 -29 0 -33 -17 -28 -11 3 -19 10 -18
16 1 6 -15 17 -35 24 -39 13 -93 63 -104 97 -4 13 0 24 12 33 10 7 13 13 6 13
-6 0 -14 16 -18 35 -4 23 -12 35 -23 36 -12 0 -12 2 4 9 18 8 18 9 -5 9 -28 1
-53 35 -64 88 -6 25 -3 36 13 52 11 11 16 23 11 26 -17 11 -11 25 8 18 9 -4 1
8 -18 25 -19 18 -43 32 -53 32 -24 0 -61 82 -54 119 8 39 -13 88 -43 101 -15
6 -33 27 -43 50 -21 49 -21 67 -2 78 22 12 6 52 -38 94 -42 41 -61 87 -52 128
4 17 4 48 0 69 -5 32 -11 40 -33 44 -34 7 -56 60 -53 132 0 28 -3 57 -8 65
-15 22 -99 15 -127 -11 -21 -19 -21 -22 -7 -59 8 -21 26 -43 38 -48 32 -15 49
-75 33 -120 -11 -30 -15 -32 -43 -26 -16 3 -33 8 -38 11 -18 11 -47 86 -47
123 0 33 -6 47 -33 73 -59 57 -72 78 -74 120 -6 88 -7 92 -31 95 -13 2 -26 11
-29 20 -2 9 -10 28 -16 40 -10 20 -8 26 13 44 14 11 20 17 13 14 -7 -4 -14 6
-18 24 -4 20 -17 36 -36 45 -16 9 -29 22 -29 30 0 23 -1 29 -11 46 -6 12 -4
21 6 29 17 14 20 40 5 40 -5 0 -10 9 -10 19 0 11 -10 27 -22 35 -12 9 -23 21
-25 28 -11 47 -14 76 -6 81 5 3 7 22 5 41 -3 29 -9 36 -33 41 -16 4 -27 11
-23 16 3 5 0 9 -6 9 -18 0 7 38 30 45 11 3 20 12 20 20 0 7 6 16 13 19 6 3 0
4 -15 3 -15 -2 -44 -1 -65 3 -32 7 -34 8 -10 9 19 1 26 5 21 13 -4 6 1 17 12
25 23 17 9 46 -25 51 -12 2 -19 8 -16 13 4 5 -1 12 -10 15 -13 5 -10 12 16 35
l33 29 -37 33 c-37 33 -47 63 -26 84 8 8 8 13 0 17 -6 4 -11 17 -11 30 0 13
-9 31 -20 41 -11 10 -20 26 -20 35 0 9 -6 22 -12 29 -11 10 -7 18 20 42 42 38
73 37 106 -1 21 -25 24 -35 16 -56 -6 -14 -10 -29 -10 -33 0 -15 45 -59 65
-63 29 -5 31 -45 4 -74 -22 -23 -22 -24 -4 -44 10 -11 29 -20 42 -20 14 0 21
-4 18 -10 -4 -6 7 -10 27 -10 23 0 29 3 19 9 -11 7 -10 13 8 32 32 35 28 71
-13 93 -32 17 -33 19 -25 59 8 47 5 96 -8 107 -4 5 -17 10 -27 12 -24 4 -60
62 -52 83 6 17 86 22 86 5 0 -5 7 -10 15 -10 8 0 26 -17 39 -37 13 -21 32 -45
42 -55 77 -68 86 -79 78 -96 -4 -9 -9 -36 -10 -59 -2 -36 1 -43 16 -43 10 0
26 -7 34 -16 15 -14 16 -13 16 6 0 17 5 21 19 17 22 -5 31 10 31 54 0 36 -16
69 -33 69 -15 0 -47 61 -47 88 0 24 50 81 56 65 3 -7 21 -13 39 -13 47 0 89
-42 81 -81 -8 -40 19 -99 44 -99 12 0 23 -7 26 -15 4 -8 12 -15 19 -15 23 0
35 26 37 80 2 47 0 55 -27 76 -16 13 -31 21 -33 19 -7 -7 -62 59 -62 73 0 23
43 51 78 52 36 0 92 -45 92 -75 0 -27 38 -73 76 -91 52 -25 70 -57 56 -98 -13
-36 2 -96 25 -96 7 0 21 -9 31 -21 18 -19 20 -19 27 -2 5 10 9 20 9 23 1 3 11
20 24 38 13 17 19 32 13 32 -5 0 -15 16 -21 35 -6 19 -15 35 -20 35 -5 0 -22
14 -39 31 -22 21 -31 40 -31 62 0 59 -10 74 -58 92 -47 19 -91 59 -92 85 0 33
-127 110 -142 87 -5 -8 -8 -6 -9 8 0 11 -3 14 -6 7 -2 -6 -9 -10 -14 -6 -14 8
-11 -9 7 -34 9 -13 13 -30 10 -38 -3 -8 4 -24 15 -35 23 -23 16 -43 -13 -36
-15 4 -18 2 -13 -11 4 -12 0 -10 -15 6 -14 15 -33 22 -58 23 -53 1 -96 29
-100 65 -4 39 -57 77 -103 72 -31 -3 -34 -7 -42 -46 -9 -47 -31 -62 -92 -62
-26 0 -43 9 -70 35 -19 20 -35 40 -35 45 0 16 -52 62 -79 70 -17 5 -31 3 -39
-6 -18 -20 -14 -72 8 -104 15 -21 17 -30 8 -33 -7 -3 2 -3 20 0 27 5 38 1 62
-23 45 -46 11 -66 -80 -48 -32 7 -51 30 -34 43 26 18 8 29 -56 35 -62 6 -72
10 -99 42 -17 19 -31 42 -31 52 -1 9 -11 30 -24 46 -20 24 -29 28 -52 22 -35
-9 -44 -22 -44 -62 0 -33 38 -84 64 -84 13 0 63 -67 55 -74 -43 -37 -149 -31
-149 8 0 16 -60 71 -87 80 -25 8 -43 47 -43 94 0 31 -5 41 -30 55 -30 18 -34
28 -30 80 1 17 -8 39 -24 58 -19 22 -26 42 -26 74 0 26 -6 47 -15 55 -11 10
-15 29 -14 67 2 30 -3 59 -9 65 -7 7 -12 29 -12 50 0 26 -6 40 -19 47 -26 14
-37 -2 -46 -66 -6 -50 -6 -52 19 -59 22 -5 25 -10 20 -33 -4 -14 -11 -30 -15
-35 -13 -15 -11 -52 4 -64 8 -7 11 -25 9 -44 -3 -26 -9 -33 -25 -34 -19 -1
-22 4 -22 40 0 33 -3 40 -17 38 -23 -4 -52 52 -39 76 9 17 -7 52 -24 52 -15 0
-34 35 -35 63 0 35 -16 67 -34 67 -15 0 -26 30 -26 71 0 14 -9 34 -20 44 -14
13 -20 31 -20 60 0 22 -5 46 -12 53 -17 17 -20 159 -4 197 12 28 12 33 -5 43
-24 15 -29 15 -29 -2 0 -16 -31 -78 -44 -87 -4 -4 -11 -28 -13 -54 -6 -44 -7
-46 -32 -40 -35 9 -34 7 -39 69 -4 46 -2 55 13 58 14 2 7 14 -33 56 -29 30
-52 58 -52 62 0 5 -10 16 -21 24 -31 21 -38 102 -13 134 17 20 22 21 46 10 15
-7 33 -23 39 -35 15 -28 31 -20 23 12 -3 12 -1 26 5 29 22 14 11 28 -18 23
-23 -5 -34 0 -57 24 -15 16 -33 29 -40 29 -6 0 -18 7 -25 16 -12 15 -14 15
-19 0 -5 -15 -7 -15 -28 -1 -22 16 -31 55 -12 55 6 0 10 -7 10 -15 0 -8 5 -15
10 -15 18 0 11 16 -21 46 -26 25 -69 92 -69 108 0 11 85 -26 93 -39 4 -8 14
-15 21 -15 8 0 19 -7 26 -16 8 -8 31 -24 53 -34 39 -19 39 -19 34 0 -3 11 -1
20 4 20 4 0 6 7 3 15 -4 10 0 15 16 15 11 0 18 -4 15 -10 -3 -5 0 -8 7 -5 14
5 38 -37 38 -66 0 -10 -6 -22 -14 -26 -19 -11 -9 -66 10 -59 25 10 47 -51 39
-108 -3 -28 -11 -56 -16 -62 -14 -18 7 -48 44 -62 25 -9 33 -8 53 7 14 11 33
16 49 14 30 -6 30 -7 9 -39 -22 -32 -14 -38 27 -21 66 27 75 66 16 68 l-32 1
30 8 c57 15 100 35 125 58 23 21 26 21 38 5 13 -18 17 -77 4 -69 -4 2 -14 1
-22 -5 -12 -7 -10 -9 7 -9 27 0 40 -18 19 -26 -13 -5 -24 -34 -13 -34 1 0 24
7 51 15 30 9 66 13 92 9 l42 -5 -1 38 c-2 27 -8 40 -23 48 -54 27 -68 61 -40
98 20 26 45 11 67 -39 12 -28 25 -44 36 -44 36 0 68 -25 70 -54 3 -44 10 -56
34 -56 12 0 23 -8 26 -18 6 -23 129 -82 171 -82 27 0 32 3 32 25 0 19 -5 25
-23 25 -25 0 -92 61 -81 73 4 4 -4 7 -18 7 -24 0 -31 8 -57 73 -6 16 -18 27
-30 27 -26 0 -54 46 -49 81 4 26 1 29 -31 35 -86 15 -126 114 -47 114 32 0 76
-33 76 -56 0 -12 29 -28 83 -44 20 -6 37 -18 37 -26 0 -8 5 -14 11 -14 6 0 9
-8 7 -18 -10 -36 66 -58 92 -28 6 8 19 12 28 9 13 -5 13 -2 -3 13 -11 10 -26
31 -32 45 -7 17 -32 37 -69 55 -31 16 -62 38 -68 49 -14 25 -35 43 -64 55 -13
6 -22 15 -20 22 5 15 58 30 58 16 0 -5 6 -8 13 -5 6 2 17 -3 24 -12 7 -9 13
-11 13 -5 0 6 21 12 48 13 42 1 48 -1 49 -20 2 -24 49 -88 66 -90 56 -5 73
-11 93 -30 13 -12 24 -31 26 -42 5 -32 44 -40 71 -14 32 31 24 63 -21 83 -81
35 -102 48 -132 85 -17 22 -38 39 -46 39 -8 0 -17 7 -20 15 -4 9 -11 15 -18
14 -37 -4 -66 28 -72 81 -3 28 -2 30 32 30 42 0 88 -24 104 -56 15 -26 36 -35
106 -43 37 -4 55 -2 64 7 10 11 14 11 20 2 5 -8 9 -3 13 12 4 14 18 30 32 36
33 15 82 15 87 1 2 -7 28 -14 58 -16 67 -5 86 -15 95 -50 14 -59 43 -68 85
-28 25 24 226 95 268 95 8 0 54 18 101 39 70 32 102 41 174 46 49 4 110 14
135 21 47 14 47 14 7 8 -22 -3 -85 -7 -140 -10 -55 -3 -113 -11 -130 -18 -16
-8 -48 -19 -70 -26 -38 -12 -79 -26 -155 -56 -55 -21 -106 -17 -148 11 -20 14
-47 25 -59 25 -22 0 -61 17 -73 31 -13 16 -51 27 -111 33 -60 6 -67 4 -71 -12
-7 -26 -58 -35 -80 -15 -10 9 -49 19 -95 23 -43 5 -89 13 -103 18 -38 14 -120
24 -120 15 0 -5 5 -14 12 -21 16 -16 -31 -16 -67 0 -32 14 -27 33 8 33 20 -1
23 2 15 12 -6 7 -23 13 -39 13 -27 0 -47 15 -35 27 14 14 178 -9 184 -26 2 -6
20 -11 40 -11 56 -1 122 -18 150 -40 31 -25 122 -29 122 -5 0 21 -50 44 -111
50 -29 3 -56 10 -60 16 -3 6 -9 10 -13 10 -3 -1 -20 6 -37 14 -17 9 -54 17
-82 17 -29 0 -57 5 -63 9 -19 15 -56 13 -140 -10 -45 -11 -105 -22 -132 -24
-39 -2 -56 -8 -71 -26 -19 -21 -25 -23 -78 -16 -32 4 -67 12 -78 18 -25 13
-59 59 -84 113 -5 12 -16 24 -23 27 -7 2 1 8 17 11 17 4 45 14 63 22 18 8 52
14 75 14 35 1 39 2 23 11 -42 25 -282 22 -314 -3 -7 -6 -33 -8 -63 -4 -45 6
-55 4 -75 -15 -13 -12 -21 -26 -18 -30 3 -5 -2 -9 -11 -9 -9 0 -13 5 -10 10 3
6 -3 10 -15 10 -12 0 -25 -10 -32 -25 -6 -14 -16 -25 -21 -25 -6 0 -1 -10 10
-22 26 -29 37 -114 16 -122 -10 -4 -11 -10 -3 -25 5 -11 10 -33 10 -50 0 -16
4 -31 8 -33 5 -1 12 -29 16 -60 l6 -58 -37 0 c-21 0 -47 7 -57 15 -11 8 -28
15 -38 15 -9 0 -22 9 -28 20 -6 11 -19 20 -29 20 -11 0 -21 7 -25 15 -3 8 -12
15 -20 15 -8 0 -34 22 -58 48 -41 46 -45 48 -78 39 -19 -4 -57 -12 -85 -17
-94 -15 -166 -38 -200 -62 -5 -4 -24 -19 -41 -33 -18 -14 -38 -25 -45 -25 -14
0 -37 -12 -202 -99 -43 -22 -84 -41 -91 -41 -8 0 -17 -7 -20 -15 -3 -9 -19
-21 -36 -26 -16 -6 -30 -15 -30 -19 0 -5 -16 -6 -36 -3 -25 4 -39 2 -45 -8 -7
-12 -9 -12 -9 1 -1 9 -7 3 -15 -12 -11 -19 -20 -25 -35 -21 -11 3 -20 0 -20
-6 0 -9 -5 -9 -21 -1 -11 6 -25 9 -32 6 -7 -2 -4 -5 6 -5 9 -1 17 -6 17 -12 0
-8 -11 -9 -32 -5 -23 4 -28 3 -18 -3 13 -9 13 -11 0 -15 -8 -3 -28 -7 -45 -9
-16 -3 -29 -10 -27 -16 1 -6 -4 -11 -10 -12 -7 0 -4 -4 7 -9 19 -8 19 -9 -3
-9 -13 -1 -39 -13 -58 -27 -19 -15 -34 -21 -34 -16 0 6 -7 9 -15 5 -9 -3 -14
-10 -12 -16 4 -12 -28 -47 -42 -47 -19 0 -60 -41 -54 -55 6 -18 -8 -20 -25 -3
-7 7 -12 8 -12 3 0 -6 -5 -3 -10 5 -9 13 -11 13 -20 0 -6 -8 -13 -26 -16 -40
-6 -25 -7 -26 -97 -24 -49 1 -101 -2 -115 -7 -13 -5 -40 -11 -60 -13 -50 -5
-82 -19 -115 -50 -15 -14 -36 -30 -46 -35 -32 -18 -95 -15 -141 6 -25 11 -67
28 -95 38 -27 10 -58 25 -67 33 -10 8 -18 11 -18 7 0 -5 -5 -4 -12 3 -20 20
-146 15 -173 -6 -23 -19 -23 -19 -5 -47 10 -15 31 -38 47 -51 23 -19 25 -25
13 -33 -8 -5 -18 -7 -24 -4 -5 3 -6 1 -2 -5 4 -7 3 -12 -2 -12 -30 0 -94 -144
-68 -153 8 -3 7 -8 -2 -19 -9 -11 -10 -18 -2 -23 16 -10 11 -48 -8 -70 -17
-19 -26 -25 -84 -57 -13 -7 -26 -17 -29 -21 -3 -5 -24 -19 -45 -32 -32 -20
-35 -24 -17 -25 25 0 39 -15 23 -25 -18 -11 -11 -25 13 -25 18 0 19 -2 7 -10
-8 -5 -39 -10 -68 -10 -45 0 -58 -4 -82 -29 -16 -16 -32 -41 -35 -57 -4 -16
-11 -38 -17 -50 -5 -11 -8 -34 -7 -50 6 -60 -18 -106 -88 -169 -181 -163 -185
-171 -157 -393 13 -109 14 -147 6 -150 -7 -2 -12 -15 -12 -28 0 -14 -4 -33
-10 -43 -5 -10 -14 -43 -19 -72 -15 -88 -21 -109 -51 -198 -17 -47 -30 -95
-30 -106 0 -11 -9 -44 -19 -72 -10 -29 -15 -53 -11 -53 4 0 -1 -24 -11 -52
-10 -29 -18 -63 -19 -74 0 -12 -7 -38 -15 -57 -8 -20 -15 -52 -15 -71 0 -20
-15 -97 -34 -173 -19 -76 -38 -160 -42 -188 -11 -84 -26 -106 -105 -160 -41
-27 -87 -63 -104 -80 -27 -27 -114 -187 -115 -210 0 -5 -11 -32 -24 -60 -28
-56 -78 -195 -71 -195 2 0 0 -11 -5 -25 -5 -14 -12 -56 -15 -94 -2 -37 -7 -74
-10 -82 -9 -20 -126 -105 -156 -112 -14 -4 -51 -22 -82 -40 -86 -52 -152 -83
-282 -132 -66 -25 -135 -54 -153 -63 -28 -14 -65 -59 -81 -97 -2 -5 -17 -26
-32 -46 -16 -20 -29 -40 -29 -44 0 -5 -10 -22 -23 -39 -13 -17 -29 -46 -36
-63 -8 -18 -19 -33 -26 -33 -8 0 -19 -16 -25 -35 -6 -19 -16 -35 -21 -35 -5 0
-9 -8 -9 -19 0 -10 -7 -24 -15 -31 -8 -7 -15 -17 -15 -23 0 -5 -8 -17 -18 -26
-10 -9 -31 -46 -48 -83 -17 -37 -34 -65 -37 -62 -3 4 -9 -7 -13 -22 -4 -16
-14 -40 -23 -53 -8 -13 -17 -36 -19 -49 -2 -14 -12 -37 -22 -52 -10 -14 -22
-39 -26 -56 -4 -16 -10 -31 -14 -34 -10 -8 -48 -149 -65 -247 -15 -79 -21 -94
-43 -109 -40 -26 -201 -195 -244 -254 -25 -36 -38 -68 -43 -103 -4 -29 -10
-56 -13 -62 -3 -5 -7 -16 -8 -25 -1 -8 -7 -30 -12 -47 -7 -21 -7 -33 -1 -33 6
0 6 -7 1 -17 -8 -16 -13 -44 -28 -173 -2 -19 -6 -67 -7 -106 -2 -39 -8 -77
-13 -85 -5 -8 -10 -39 -11 -69 -4 -80 -7 -104 -15 -110 -4 -3 -8 -24 -9 -47
-2 -23 -6 -40 -9 -38 -5 3 -38 -52 -45 -75 -1 -3 -7 -18 -13 -33 -7 -16 -12
-33 -12 -38 0 -5 -4 -9 -9 -9 -5 0 -14 -13 -21 -30 -7 -16 -17 -30 -22 -30 -5
0 -6 -9 -3 -20 4 -11 2 -20 -4 -20 -6 0 -11 -7 -11 -16 0 -21 -57 -135 -75
-149 -7 -5 -16 -20 -20 -32 l-6 -23 6225 0 6226 0 0 5180 c0 4927 -1 5180 -17
5180 -26 0 -172 -27 -213 -40 -60 -18 -103 -12 -177 25 -76 38 -118 43 -161
21 -15 -7 -44 -16 -66 -20 -35 -7 -38 -6 -34 12 16 59 -54 68 -143 18z m-2369
-2436 c0 -6 -7 -13 -16 -17 -13 -5 -12 -9 7 -29 12 -13 28 -24 34 -24 6 0 18
-12 25 -26 11 -19 11 -29 2 -44 -19 -31 7 -41 94 -38 75 3 79 2 82 -19 4 -29
-18 -34 -133 -31 -76 3 -90 6 -93 21 -3 13 3 17 23 17 15 0 24 4 20 10 -4 6
-10 8 -15 5 -5 -3 -15 3 -22 15 -7 11 -18 20 -25 20 -17 0 -83 40 -83 51 0 5
7 12 15 15 27 11 16 24 -25 30 -22 4 -40 11 -40 16 0 6 -9 8 -20 5 -11 -3 -20
-1 -20 4 0 9 28 13 62 10 10 -1 26 2 35 8 23 14 93 14 93 1z m-659 -96 c11
-14 11 -18 -3 -28 -13 -9 -15 -22 -11 -54 3 -24 10 -45 14 -48 14 -8 10 -41
-7 -58 -11 -12 -12 -16 -2 -16 7 0 0 -12 -15 -26 l-28 -26 -25 23 c-18 17 -24
33 -24 66 0 26 5 46 13 49 7 2 14 16 15 30 1 18 -5 27 -21 33 -24 10 -33 41
-12 41 7 0 18 7 25 15 16 20 64 19 81 -1z m-1586 -2389 c29 -28 31 -42 9 -66
-22 -24 -9 -58 27 -71 35 -12 40 -51 9 -70 -11 -7 -20 -17 -20 -21 0 -13 27
-37 42 -37 7 0 19 -10 26 -21 12 -19 10 -25 -15 -53 -15 -17 -30 -33 -32 -36
-2 -3 -6 1 -8 8 -3 6 -9 12 -14 12 -6 0 -8 -4 -5 -8 8 -13 -63 -1 -74 14 -14
16 -4 54 15 54 8 0 16 4 19 9 11 17 -6 41 -28 41 -47 0 -63 57 -24 84 12 9 17
16 10 16 -8 0 -11 7 -7 19 4 14 -1 20 -25 24 -27 6 -30 10 -30 42 0 39 18 65
44 65 9 0 16 5 16 10 0 19 41 10 65 -15z m2867 -1597 c53 -57 58 -76 28 -103
-14 -13 -17 -21 -9 -31 7 -8 7 -14 -1 -19 -20 -12 -11 -44 15 -51 34 -8 42
-22 48 -75 5 -44 4 -47 -19 -52 -28 -5 -45 7 -70 50 -14 26 -16 37 -6 57 7 17
8 34 2 48 -5 14 -9 17 -10 8 -1 -10 -4 -9 -9 5 -4 11 -21 27 -37 35 -19 11
-32 30 -41 59 -14 49 -10 67 20 75 21 6 22 7 2 18 -19 11 -19 11 0 19 34 13
39 11 87 -43z m-893 -1794 c36 -7 39 -22 11 -47 -21 -18 -28 -53 -8 -41 8 5 9
2 5 -9 -5 -12 4 -24 32 -43 32 -21 40 -33 48 -75 10 -46 9 -51 -13 -68 -13
-10 -20 -22 -16 -26 4 -5 0 -6 -9 -2 -9 3 -22 0 -28 -6 -8 -8 -11 -8 -11 0 0
7 -13 11 -30 11 -41 -1 -56 15 -70 72 -13 54 -8 70 20 70 16 0 18 6 13 38 -3
21 -15 45 -27 54 -11 10 -27 23 -33 28 -26 22 -14 39 30 43 23 2 45 4 48 5 4
1 21 -1 38 -4z m921 -70 c-7 -8 -8 -98 -1 -133 1 -2 17 15 37 38 20 22 44 41
54 41 10 0 20 6 22 12 4 12 57 -38 58 -54 1 -23 -112 -108 -142 -108 -10 0
-18 -5 -18 -10 0 -15 -43 -30 -54 -19 -6 5 -29 9 -53 9 -32 0 -43 4 -43 15 0
8 -4 15 -10 15 -5 0 -10 8 -10 19 0 10 -7 24 -15 31 -13 11 -13 15 6 31 12 10
19 25 16 33 -4 9 0 22 9 30 13 13 12 16 -3 25 -17 10 -17 10 -1 11 10 0 15 5
12 14 -3 8 7 19 26 28 28 14 36 13 75 -1 30 -10 41 -19 35 -27z m-232 -11 c8
-8 12 -17 8 -20 -3 -3 -1 -12 5 -19 8 -9 5 -18 -10 -33 -18 -18 -33 -21 -105
-21 l-84 0 -12 33 c-12 30 -13 56 -4 66 21 21 180 17 202 -6z m-70 -120 c-4
-20 31 -31 42 -13 6 10 12 10 26 0 15 -9 16 -10 2 -6 -13 4 -15 1 -11 -11 5
-12 2 -15 -10 -10 -15 5 -16 1 -13 -31 4 -24 0 -42 -10 -54 -9 -9 -18 -44 -21
-78 -5 -51 -3 -64 14 -83 10 -12 25 -40 32 -62 8 -22 18 -43 22 -46 5 -3 11
-20 13 -37 3 -28 0 -33 -22 -39 -14 -3 -33 -1 -43 6 -10 6 -30 11 -43 11 -18
0 -26 7 -31 27 -3 15 -14 44 -24 64 -10 21 -16 49 -14 63 3 15 0 33 -7 41 -7
8 -20 30 -30 48 -14 26 -22 31 -46 29 -42 -5 -74 -24 -92 -54 -14 -24 -14 -30
2 -71 12 -33 24 -47 43 -52 16 -4 29 -2 33 5 5 8 10 9 14 2 4 -6 -1 -15 -9
-20 -14 -8 -14 -14 5 -61 15 -38 17 -57 10 -71 -13 -24 -13 -55 0 -78 5 -9 16
-34 24 -54 8 -21 22 -38 30 -38 10 0 16 -9 17 -22 0 -13 2 -32 4 -43 7 -36
-44 -78 -106 -90 -32 -6 -36 -3 -62 37 -21 32 -27 51 -23 74 2 18 -1 37 -7 43
-6 6 -8 11 -3 11 8 0 -20 53 -44 82 -8 10 -20 18 -27 18 -7 0 -13 6 -13 14 0
21 -21 31 -32 15 -6 -10 -8 -7 -7 11 3 49 0 57 -15 37 -10 -13 -16 -15 -21 -7
-4 6 2 18 13 26 17 12 20 24 19 69 -2 35 -8 61 -19 71 -21 21 -74 26 -89 8 -6
-8 -18 -14 -25 -14 -10 0 -14 -15 -14 -56 0 -75 11 -94 52 -89 34 4 53 -12 37
-31 -6 -8 -1 -17 16 -28 29 -19 33 -42 8 -50 -26 -9 -43 -52 -33 -84 15 -52
44 -102 62 -108 10 -3 19 -11 20 -17 0 -7 2 -16 2 -22 1 -5 5 -16 10 -23 10
-16 0 -60 -17 -76 -12 -11 -66 -39 -79 -40 -3 -1 -10 -4 -14 -8 -26 -26 -69 9
-97 81 -14 33 -15 46 -6 57 8 10 8 18 1 27 -5 6 -14 34 -20 61 -8 40 -7 56 7
90 23 54 33 106 21 106 -6 0 -10 9 -10 20 0 11 -4 20 -9 20 -4 0 -31 18 -59
40 -60 48 -91 104 -73 133 11 17 10 18 -11 12 -27 -8 -85 -32 -110 -45 -10 -5
-24 -7 -33 -3 -13 4 -6 15 32 49 45 41 93 58 93 33 0 -17 92 -1 110 19 33 38
81 63 120 64 52 1 61 -8 24 -22 -16 -5 -37 -15 -46 -20 -10 -6 -26 -10 -37
-10 -10 0 -22 -7 -25 -16 -10 -26 97 -14 132 15 15 12 35 24 45 28 9 3 17 10
17 15 0 5 -10 6 -22 2 -20 -6 -21 -5 -9 10 7 9 32 21 55 28 22 6 46 15 52 20
14 10 44 0 44 -16 0 -7 18 -10 51 -9 43 1 54 6 80 35 16 18 31 40 34 48 3 8
26 29 52 45 26 17 49 36 51 44 3 8 0 11 -7 7 -6 -4 -11 -2 -11 3 0 6 16 11 35
11 28 0 35 -4 33 -17z m277 -248 c0 -58 -4 -73 -22 -92 -28 -27 -28 -29 -2
-36 12 -3 18 -10 15 -15 -9 -14 -54 -11 -67 4 -6 8 -15 11 -20 8 -5 -3 -9 2
-9 12 0 9 -6 22 -14 28 -8 6 -16 22 -18 35 -2 19 2 26 22 31 17 4 28 16 35 40
14 50 20 56 52 54 28 -1 28 -1 28 -69z m-1157 -178 c1 -25 44 -62 100 -87 24
-11 50 -27 58 -35 9 -8 22 -15 30 -15 8 0 14 -6 14 -13 0 -7 5 -18 12 -25 14
-14 17 -68 6 -99 -6 -18 -14 -22 -36 -19 -16 2 -38 12 -49 22 -59 57 -103 94
-113 94 -5 0 -10 4 -10 9 0 5 -13 12 -29 16 -16 3 -50 19 -75 35 -74 48 -60
91 48 145 24 13 41 1 44 -28z m1309 -49 c14 -13 31 -38 39 -57 13 -30 12 -36
-2 -53 -11 -11 -31 -18 -55 -18 -40 0 -59 19 -101 97 -23 43 -23 51 5 56 40 9
90 -2 114 -25z m-244 -98 c23 0 36 -16 43 -50 15 -76 13 -83 -37 -98 -28 -9
-60 -12 -81 -8 -29 5 -37 13 -56 57 -21 51 -21 69 -1 69 6 0 17 7 25 15 9 8
26 15 40 15 14 0 27 7 31 16 5 15 7 15 15 0 5 -9 14 -16 21 -16z m-1223 -88
c51 -44 139 -92 170 -92 11 0 38 -9 59 -19 31 -16 40 -28 51 -67 8 -29 20 -49
31 -51 11 -3 20 -19 24 -44 4 -21 11 -41 16 -45 13 -7 11 -41 -3 -67 -6 -12
-12 -33 -12 -47 -1 -15 -10 -29 -23 -36 -13 -6 -20 -14 -16 -18 9 -9 -16 -26
-40 -26 -9 0 -26 15 -37 33 -11 17 -20 28 -20 22 -1 -23 -40 42 -40 67 0 25
27 84 53 116 7 9 -4 26 -45 66 -30 29 -63 64 -72 78 -14 22 -24 26 -54 23 -20
-1 -49 -6 -64 -10 -20 -5 -40 0 -77 21 -59 31 -93 65 -73 71 6 3 12 11 12 19
0 7 9 19 20 26 11 7 20 18 20 25 0 35 51 16 120 -45z m79 -471 c8 -5 9 -11 3
-15 -5 -3 -13 -26 -16 -50 -8 -50 14 -116 38 -116 8 0 19 -12 25 -27 6 -16 20
-40 32 -55 19 -23 20 -30 9 -43 -17 -20 -139 -79 -147 -71 -3 3 -14 29 -24 58
-17 46 -17 56 -5 92 26 76 29 113 12 119 -22 9 -11 54 23 90 29 30 30 30 50
18z"/>
<path d="M8700 10320 c-8 -5 -23 -7 -32 -4 -10 3 -18 1 -18 -5 0 -6 -11 -11
-24 -11 -13 0 -46 -9 -72 -20 -26 -11 -54 -18 -63 -16 -9 3 -33 -9 -56 -29
-22 -19 -42 -35 -46 -35 -3 0 -11 -11 -17 -25 -6 -14 -19 -25 -27 -25 -22 0
-45 -25 -45 -48 0 -11 -6 -23 -12 -25 -8 -3 -6 -6 5 -6 9 -1 17 -5 17 -10 0
-14 31 -22 44 -12 32 26 85 48 93 40 10 -10 87 23 98 41 4 6 11 8 16 4 5 -3
35 2 66 11 46 13 57 14 64 3 7 -11 11 -11 18 1 5 8 19 12 34 9 27 -5 37 6 37
43 0 10 5 19 10 19 6 0 10 -7 10 -15 0 -18 5 -18 31 -5 25 14 25 61 1 83 -25
23 -35 21 -29 -3 9 -35 -28 -23 -49 15 -19 37 -29 41 -54 25z"/>
<path d="M10283 9045 c4 -8 2 -17 -2 -20 -5 -3 0 -22 10 -42 10 -21 19 -44 19
-53 0 -9 5 -21 11 -27 5 -5 12 -32 15 -59 2 -27 7 -56 10 -66 2 -9 1 -19 -4
-22 -5 -3 -7 -59 -4 -125 2 -75 -1 -141 -9 -178 -7 -32 -12 -64 -10 -71 1 -8
-2 -19 -8 -25 -5 -7 -9 -56 -9 -108 0 -53 -2 -101 -6 -107 -3 -5 4 -12 16 -15
15 -4 29 3 49 25 16 16 29 37 29 45 0 8 6 24 12 36 7 12 13 43 13 69 1 31 7
54 19 67 17 19 17 21 2 27 -19 7 -21 24 -3 24 7 0 19 25 28 58 13 51 17 57 39
54 13 -1 28 -8 32 -15 6 -9 11 -8 19 3 8 12 9 11 4 -6 -3 -12 1 -33 8 -47 13
-26 14 -26 41 -7 28 17 28 18 8 29 -14 7 -18 17 -15 31 4 16 2 19 -13 13 -13
-5 -16 -3 -11 10 3 9 -1 30 -10 48 -12 24 -14 48 -9 108 4 42 11 80 16 85 5 5
4 20 -1 35 -8 21 -8 24 2 14 16 -16 49 -17 49 -2 0 8 5 8 15 -1 8 -7 12 -16 9
-21 -3 -5 2 -9 10 -9 8 0 16 -10 18 -22 2 -15 9 -22 19 -20 9 1 22 -4 29 -13
10 -12 9 -16 -4 -21 -9 -3 -16 -14 -16 -23 1 -14 3 -13 15 3 8 10 35 22 62 27
55 11 75 25 53 39 -8 5 -28 10 -44 10 -22 0 -27 3 -19 11 12 12 -29 59 -52 59
-8 0 -37 22 -65 49 -44 42 -56 49 -86 46 -19 -1 -37 2 -40 6 -3 5 13 9 36 9
22 0 48 5 58 11 14 9 31 8 68 -1 27 -6 68 -13 92 -15 34 -2 40 0 31 11 -6 8
-18 14 -26 14 -9 0 -13 6 -10 14 4 10 -11 15 -65 20 -38 3 -78 11 -88 16 -11
6 -65 7 -134 4 -85 -5 -120 -3 -131 6 -11 9 -18 10 -29 1 -10 -9 -15 -8 -20 4
-3 8 -10 15 -17 15 -6 0 -9 -7 -6 -15z"/>
<path d="M7700 8055 c-7 -8 -17 -15 -24 -15 -14 0 -116 -70 -116 -79 0 -4 13
-6 29 -3 36 5 75 -20 91 -58 7 -17 16 -30 19 -30 4 0 23 -13 41 -30 41 -37 57
-38 72 -5 9 19 9 28 0 37 -7 7 -12 15 -12 19 0 12 67 18 106 9 27 -6 48 -5 72
5 33 14 40 40 11 40 -8 0 -27 12 -43 28 -16 15 -37 27 -48 27 -10 0 -36 11
-57 24 -21 14 -41 23 -43 20 -3 -2 -11 2 -18 11 -16 19 -64 19 -80 0z"/>
<path d="M10195 7552 c-19 -11 -59 -17 -111 -19 -63 -1 -91 -7 -131 -27 -28
-15 -58 -26 -66 -26 -20 0 -54 -15 -92 -40 -49 -32 -78 -42 -111 -36 -38 8
-91 -14 -121 -48 -13 -14 -22 -26 -20 -27 19 -9 77 -3 101 11 18 9 59 20 93
22 l61 6 14 -51 c14 -48 15 -49 32 -31 14 14 34 18 82 19 35 0 64 3 64 8 0 4
9 -2 20 -13 25 -25 53 -16 47 16 -4 24 13 34 65 34 15 0 29 4 33 10 3 5 15 0
27 -12 30 -30 30 -99 0 -113 -17 -7 -20 -15 -15 -40 8 -39 18 -52 48 -58 33
-6 59 14 51 39 -3 10 -5 23 -5 28 0 5 -6 13 -15 18 -26 14 -21 87 8 117 29 32
43 91 21 91 -11 0 -15 13 -15 50 0 37 4 50 15 50 8 0 19 9 25 20 10 19 8 20
-32 19 -24 -1 -56 -8 -73 -17z"/>
<path d="M9249 6923 c-4 -26 5 -82 15 -103 14 -27 11 -89 -5 -104 -5 -6 -9
-25 -9 -43 0 -37 25 -56 68 -51 23 3 27 7 25 32 -1 16 -9 36 -18 46 -18 20
-20 101 -3 118 15 15 32 16 23 2 -3 -5 1 -10 9 -10 26 0 15 32 -14 43 -12 4
-12 6 2 6 16 1 15 4 -3 36 -17 29 -27 35 -55 35 -19 0 -34 -3 -35 -7z"/>
<path d="M9916 5949 c-30 -23 -33 -56 -11 -99 11 -21 23 -30 40 -30 14 0 28 0
33 0 4 0 7 4 7 9 0 20 14 21 20 2 6 -21 25 -29 25 -11 0 6 -4 10 -9 10 -6 0
-7 16 -4 35 3 21 1 41 -7 50 -7 8 -9 15 -5 15 5 0 0 9 -10 20 -23 26 -46 25
-79 -1z"/>
<path d="M9652 4893 c-31 -6 -44 -35 -36 -82 5 -31 12 -41 30 -45 13 -4 24
-13 24 -21 0 -9 6 -24 13 -35 10 -17 9 -26 -5 -50 -13 -23 -14 -36 -6 -69 11
-44 37 -59 77 -46 15 5 21 2 21 -10 0 -9 -4 -14 -9 -10 -15 9 -22 -11 -12 -37
6 -15 10 -17 10 -7 1 9 8 22 16 29 8 7 15 21 15 32 0 11 6 26 14 33 11 11 12
24 4 57 -10 45 -21 58 -53 58 -16 0 -17 2 -6 9 12 7 12 13 3 24 -7 7 -12 40
-11 73 0 88 -3 99 -37 100 -16 1 -39 0 -52 -3z"/>
<path d="M9392 4877 c-6 -7 -9 -22 -6 -34 3 -12 -2 -32 -11 -46 -14 -22 -15
-31 -4 -66 13 -42 17 -44 84 -43 16 1 17 0 3 -4 -14 -4 -17 -14 -13 -47 2 -27
-1 -48 -11 -58 -12 -14 -12 -21 1 -52 14 -34 18 -37 58 -37 52 0 94 25 76 46
-6 8 -9 27 -7 44 5 32 4 33 -67 32 -16 -1 -22 2 -12 4 9 3 17 10 17 15 0 6 4
8 9 5 4 -3 6 6 3 20 -2 14 -11 28 -19 31 -12 5 -11 9 2 29 17 27 20 60 5 69
-5 3 -10 14 -10 24 0 10 -8 22 -17 25 -10 3 -29 13 -43 21 -20 12 -21 15 -7
15 10 0 15 5 12 10 -9 14 -31 12 -43 -3z"/>
<path d="M9942 4735 c-27 -23 -29 -28 -22 -61 10 -43 23 -54 68 -54 23 0 40 7
53 23 21 25 23 40 10 65 -5 9 -12 25 -15 35 -8 26 -59 22 -94 -8z"/>
<path d="M11210 4650 c-16 -29 7 -99 37 -113 14 -6 23 -19 23 -33 0 -12 4 -34
9 -47 7 -17 6 -30 -3 -43 -22 -31 -5 -95 34 -134 23 -23 28 -108 8 -128 -7 -7
-11 -31 -9 -55 2 -31 10 -49 32 -69 24 -22 29 -35 29 -73 0 -32 -5 -47 -16
-52 -12 -4 -14 -18 -11 -62 l4 -56 44 -6 c24 -3 36 -7 27 -7 -22 -2 -24 -42
-3 -42 8 0 15 -4 15 -10 0 -5 -4 -10 -10 -10 -5 0 -10 -4 -10 -10 0 -23 30 5
31 29 0 20 2 22 7 9 4 -10 8 27 10 81 2 91 1 101 -18 114 -15 11 -21 26 -22
59 0 25 4 53 9 62 13 23 -8 105 -30 121 -9 7 -17 24 -17 39 0 15 -4 25 -8 22
-10 -6 -9 50 1 60 15 16 6 81 -18 119 -13 22 -25 49 -25 61 0 11 -9 30 -20 41
-16 18 -17 22 -5 27 20 7 19 26 -5 80 -17 40 -23 46 -49 46 -20 0 -34 -7 -41
-20z"/>
<path d="M11003 4634 c-20 -24 -21 -29 -8 -70 9 -32 10 -44 2 -44 -7 0 4 -8
23 -18 34 -17 35 -19 33 -72 0 -30 -3 -72 -5 -92 -2 -21 0 -38 5 -38 4 0 6 -4
3 -9 -19 -30 44 -62 82 -42 16 9 18 18 14 63 -5 54 -42 116 -69 117 -14 1 -18
21 -4 21 4 0 11 20 14 45 7 50 -13 115 -45 147 -22 22 -18 22 -45 -8z"/>
<path d="M10261 4614 c0 -12 -8 -27 -16 -34 -19 -16 -19 -31 2 -75 10 -20 27
-38 39 -41 23 -6 54 -58 54 -89 0 -10 -7 -23 -16 -30 -15 -10 -15 -16 -3 -51
18 -53 27 -64 56 -64 20 0 24 -4 21 -24 -1 -13 3 -31 11 -40 12 -14 11 -19 -4
-36 -12 -13 -15 -27 -10 -49 7 -31 47 -71 71 -71 8 0 14 -9 14 -20 0 -11 4
-20 9 -20 13 0 7 -40 -8 -49 -11 -7 -10 -15 8 -44 25 -40 38 -47 92 -47 37 0
39 2 39 30 0 17 -4 30 -10 30 -5 0 -10 6 -10 13 0 23 -68 89 -82 81 -9 -6 -9
-3 1 9 8 10 15 36 17 59 4 64 -28 110 -70 100 -20 -4 -20 -4 -3 10 18 13 18
15 -2 50 -18 30 -19 37 -7 47 10 9 11 22 5 58 -9 45 -21 63 -45 63 -6 0 -17
25 -24 55 -10 42 -10 57 -1 69 9 11 8 22 -5 53 -9 21 -17 41 -16 45 3 12 -57
19 -77 9 -16 -9 -20 -8 -24 7 -4 13 -5 13 -6 -4z"/>
<path d="M9990 4601 c0 -5 5 -22 10 -36 8 -22 15 -26 35 -22 14 2 28 0 31 -4
3 -5 -5 -9 -18 -9 -26 0 -58 -31 -58 -57 0 -9 5 -31 12 -49 9 -26 18 -34 42
-36 41 -5 84 17 91 45 3 12 0 36 -7 53 -17 40 -73 88 -94 80 -9 -3 -12 -2 -9
5 4 5 1 16 -5 24 -14 17 -30 20 -30 6z"/>
<path d="M9775 4479 c-4 -6 -5 -13 -2 -16 3 -3 -6 -15 -20 -27 -25 -22 -25
-23 -9 -53 20 -39 22 -40 70 -44 33 -3 42 1 59 22 16 23 17 30 6 50 -7 13 -12
30 -11 37 2 8 -11 12 -39 12 -32 0 -40 3 -35 15 6 17 -9 21 -19 4z"/>
<path d="M10090 4369 l-25 -7 28 -1 c15 -1 27 -5 27 -9 0 -5 -10 -8 -21 -8
-12 1 -24 -5 -26 -12 -3 -8 1 -10 13 -5 12 4 15 3 10 -5 -4 -8 0 -12 11 -13
14 0 12 -3 -7 -12 -39 -18 -49 -31 -38 -50 5 -9 6 -17 3 -17 -3 0 5 -12 18
-26 19 -21 31 -25 63 -22 48 5 64 14 64 37 0 29 -31 83 -51 88 -12 3 -19 14
-19 28 0 30 -19 43 -50 34z"/>
<path d="M11123 4232 c-20 -3 -21 -7 -16 -51 4 -36 1 -51 -11 -63 -23 -24 -19
-128 6 -128 15 0 35 -24 35 -43 0 -9 -4 -17 -9 -17 -4 0 -8 -13 -8 -29 0 -17
-4 -33 -10 -36 -23 -14 1 -125 27 -125 19 0 55 -43 42 -51 -6 -3 -10 -17 -8
-30 1 -13 -1 -34 -5 -46 -11 -35 19 -87 71 -119 25 -16 49 -28 54 -26 5 1 9
-3 9 -9 0 -6 -9 -8 -22 -4 -17 6 -20 4 -15 -10 4 -9 7 -21 7 -26 0 -6 7 -6 19
0 10 6 21 7 25 4 3 -3 6 -1 6 6 0 8 -6 11 -16 7 -14 -5 -15 -4 -5 8 16 19 6
36 -20 36 -11 0 -19 7 -19 16 0 10 6 14 14 11 17 -7 31 34 15 44 -5 3 -9 10
-8 15 4 17 -20 63 -41 76 -11 7 -20 19 -20 26 0 7 -4 11 -8 8 -8 -5 -5 58 5
84 11 28 2 114 -13 125 -19 14 -30 101 -15 119 18 22 10 118 -11 134 -11 8
-18 26 -18 45 0 41 -10 53 -37 49z"/>
<path d="M10158 4099 c-10 -5 -15 -17 -12 -27 19 -57 28 -72 55 -81 16 -5 29
-17 29 -25 0 -8 8 -22 17 -31 16 -16 15 -18 -5 -34 -15 -12 -19 -23 -15 -43 3
-15 9 -25 14 -23 4 3 6 -3 4 -14 -4 -23 22 -32 73 -25 43 5 48 9 56 40 7 27
-3 40 -65 89 -14 11 -27 25 -28 30 -2 6 -6 16 -9 23 -2 7 0 18 7 25 14 14 15
47 1 47 -5 0 -10 9 -10 20 0 33 -73 52 -112 29z"/>
<path d="M11404 3659 c-12 -13 -15 -23 -8 -27 6 -4 19 -23 28 -44 16 -33 22
-36 62 -40 61 -5 72 9 49 67 -9 25 -25 50 -35 55 -31 17 -76 12 -96 -11z"/>
<path d="M11537 3500 c-8 -11 -17 -17 -22 -12 -4 4 -6 0 -3 -8 3 -8 14 -14 24
-12 15 3 13 -2 -9 -22 l-29 -25 22 -39 c21 -37 90 -84 90 -62 0 6 8 10 18 10
34 0 43 21 22 48 -11 14 -20 35 -20 48 0 23 -12 29 -58 27 -10 -1 -10 2 -1 13
9 11 8 14 -4 14 -10 0 -13 6 -10 20 7 26 -2 26 -20 0z"/>
<path d="M11292 3400 c-23 -10 -42 -24 -42 -29 0 -15 40 -85 53 -93 16 -10 80
0 94 15 10 10 9 21 -8 54 -11 22 -28 48 -37 56 -16 14 -21 14 -60 -3z"/>
<path d="M11420 3183 c-14 -3 -35 -14 -48 -26 -22 -20 -22 -21 -3 -39 11 -10
24 -24 28 -33 6 -9 29 -17 66 -20 l57 -5 0 35 c0 35 -15 73 -35 87 -11 8 -24
8 -65 1z"/>
<path d="M11483 2990 c4 -19 1 -34 -9 -44 -13 -14 -13 -21 6 -65 15 -34 30
-53 50 -61 36 -15 61 -90 41 -123 -14 -21 -4 -51 28 -89 26 -33 131 -16 131
20 0 20 -41 80 -66 96 -13 9 -24 12 -24 6 0 -5 -10 -10 -21 -10 -18 0 -19 2
-9 15 7 8 19 15 26 15 18 0 18 14 0 30 -8 6 -12 18 -9 26 3 9 -1 14 -12 14
-10 0 -13 -5 -9 -12 5 -7 3 -8 -5 -3 -9 5 -5 15 14 35 25 27 26 30 14 64 -7
20 -16 36 -20 36 -4 0 -10 9 -14 19 -7 22 -52 33 -77 20 -15 -8 -18 -5 -18 16
0 14 -5 25 -11 25 -7 0 -9 -11 -6 -30z"/>
<path d="M11745 2530 c-3 -5 -14 -10 -24 -10 -36 0 -44 -25 -21 -69 15 -31 26
-41 45 -41 15 0 26 -7 30 -20 4 -13 15 -20 31 -20 14 0 23 4 19 10 -3 5 -12 7
-20 3 -9 -3 -15 1 -15 11 0 10 5 13 17 9 11 -4 14 -3 9 5 -4 7 -1 12 8 12 27
0 36 33 17 59 -10 13 -16 31 -14 40 3 12 -5 17 -36 19 -22 1 -42 -2 -46 -8z"/>
<path d="M11835 2324 c-10 -8 -13 -14 -7 -14 7 0 3 -9 -9 -21 -21 -21 -20 -59
3 -86 26 -32 158 1 158 39 0 10 -4 18 -9 18 -6 0 -18 14 -28 30 -16 28 -21 30
-58 25 -26 -4 -35 -3 -26 3 7 5 9 12 4 15 -4 3 -17 -1 -28 -9z"/>
</g>
</svg>
